<svg xmlns="http://www.w3.org/2000/svg" xmlns:xlink="http://www.w3.org/1999/xlink" width="1080" zoomAndPan="magnify" viewBox="0 0 810 809.999993" height="1080" preserveAspectRatio="xMidYMid meet" version="1.0"><defs><filter x="0%" y="0%" width="100%" height="100%" id="585c12690b"><feColorMatrix values="0 0 0 0 1 0 0 0 0 1 0 0 0 0 1 0 0 0 1 0" color-interpolation-filters="sRGB"/></filter><g/><clipPath id="0829b3b387"><path d="M 455 46.441406 L 540 46.441406 L 540 53 L 455 53 Z M 455 46.441406 " clip-rule="nonzero"/></clipPath><clipPath id="e256047932"><path d="M 549 46.441406 L 576 46.441406 L 576 53 L 549 53 Z M 549 46.441406 " clip-rule="nonzero"/></clipPath><clipPath id="dde4283c54"><path d="M 435 46.441406 L 443 46.441406 L 443 53 L 435 53 Z M 435 46.441406 " clip-rule="nonzero"/></clipPath><clipPath id="3c61ab9942"><path d="M 655 46.441406 L 692 46.441406 L 692 53 L 655 53 Z M 655 46.441406 " clip-rule="nonzero"/></clipPath><clipPath id="765a59195e"><path d="M 587 46.441406 L 649 46.441406 L 649 53 L 587 53 Z M 587 46.441406 " clip-rule="nonzero"/></clipPath><clipPath id="eb1d0637a7"><path d="M 204 66 L 643 66 L 643 764.941406 L 204 764.941406 Z M 204 66 " clip-rule="nonzero"/></clipPath><clipPath id="5cf6332d26"><path d="M 747 255 L 798.382812 255 L 798.382812 301 L 747 301 Z M 747 255 " clip-rule="nonzero"/></clipPath><clipPath id="79612bce70"><path d="M 13.132812 719 L 52 719 L 52 759 L 13.132812 759 Z M 13.132812 719 " clip-rule="nonzero"/></clipPath><mask id="f797c33647"><g filter="url(#585c12690b)"><rect x="-81" width="972" fill="#000000" y="-80.999999" height="971.999992" fill-opacity="0.5"/></g></mask><clipPath id="a82e7c1a97"><path d="M 1 0.199219 L 35 0.199219 L 35 33.320312 L 1 33.320312 Z M 1 0.199219 " clip-rule="nonzero"/></clipPath><clipPath id="b8758e24eb"><path d="M 73 0.199219 L 107 0.199219 L 107 33.320312 L 73 33.320312 Z M 73 0.199219 " clip-rule="nonzero"/></clipPath><clipPath id="6a6280309b"><path d="M 144 0.199219 L 178 0.199219 L 178 33.320312 L 144 33.320312 Z M 144 0.199219 " clip-rule="nonzero"/></clipPath><clipPath id="feba8be243"><path d="M 216 0.199219 L 249.800781 0.199219 L 249.800781 33.320312 L 216 33.320312 Z M 216 0.199219 " clip-rule="nonzero"/></clipPath><clipPath id="fab81a5e89"><rect x="0" width="250" y="0" height="34"/></clipPath><mask id="56568341d3"><g filter="url(#585c12690b)"><rect x="-81" width="972" fill="#000000" y="-80.999999" height="971.999992" fill-opacity="0.5"/></g></mask><clipPath id="c1ba1d996b"><path d="M 0.359375 2 L 7 2 L 7 8 L 0.359375 8 Z M 0.359375 2 " clip-rule="nonzero"/></clipPath><clipPath id="584136f8ca"><path d="M 0.359375 96 L 7 96 L 7 102 L 0.359375 102 Z M 0.359375 96 " clip-rule="nonzero"/></clipPath><clipPath id="66bbd48c44"><path d="M 0.359375 17 L 7 17 L 7 23 L 0.359375 23 Z M 0.359375 17 " clip-rule="nonzero"/></clipPath><clipPath id="633ac87ce9"><path d="M 0.359375 111 L 7 111 L 7 117 L 0.359375 117 Z M 0.359375 111 " clip-rule="nonzero"/></clipPath><clipPath id="0d7a8a8c30"><path d="M 0.359375 33 L 7 33 L 7 39 L 0.359375 39 Z M 0.359375 33 " clip-rule="nonzero"/></clipPath><clipPath id="3f9b6d3b32"><path d="M 0.359375 49 L 7 49 L 7 55 L 0.359375 55 Z M 0.359375 49 " clip-rule="nonzero"/></clipPath><clipPath id="b0de06fc31"><path d="M 0.359375 64 L 7 64 L 7 70 L 0.359375 70 Z M 0.359375 64 " clip-rule="nonzero"/></clipPath><clipPath id="5b05b4335d"><path d="M 0.359375 80 L 7 80 L 7 86 L 0.359375 86 Z M 0.359375 80 " clip-rule="nonzero"/></clipPath><clipPath id="ef5d2205c1"><rect x="0" width="250" y="0" height="119"/></clipPath></defs><g clip-path="url(#0829b3b387)"><path fill="#d4def9" d="M 455.152344 46.636719 L 539.464844 46.636719 L 539.464844 52.621094 L 455.152344 52.621094 Z M 455.152344 46.636719 " fill-opacity="0.5" fill-rule="nonzero"/></g><g clip-path="url(#e256047932)"><path fill="#d4def9" d="M 549.304688 46.636719 L 575.351562 46.636719 L 575.351562 52.621094 L 549.304688 52.621094 Z M 549.304688 46.636719 " fill-opacity="0.5" fill-rule="nonzero"/></g><g clip-path="url(#dde4283c54)"><path fill="#d4def9" d="M 435.664062 46.636719 L 442.804688 46.636719 L 442.804688 52.621094 L 435.664062 52.621094 Z M 435.664062 46.636719 " fill-opacity="1" fill-rule="nonzero"/></g><g clip-path="url(#3c61ab9942)"><path fill="#d4def9" d="M 655.613281 46.636719 L 691.304688 46.636719 L 691.304688 52.621094 L 655.613281 52.621094 Z M 655.613281 46.636719 " fill-opacity="0.8" fill-rule="nonzero"/></g><g clip-path="url(#765a59195e)"><path fill="#d4def9" d="M 587.890625 46.636719 L 648.085938 46.636719 L 648.085938 52.621094 L 587.890625 52.621094 Z M 587.890625 46.636719 " fill-opacity="0.5" fill-rule="nonzero"/></g><path fill="#d4def9" d="M 554.511719 159.121094 L 455.152344 159.121094 L 455.152344 165.101562 L 575.351562 165.101562 L 575.351562 159.121094 Z M 554.511719 159.121094 " fill-opacity="1" fill-rule="nonzero"/><path fill="#d4def9" d="M 435.664062 159.121094 L 442.804688 159.121094 L 442.804688 165.101562 L 435.664062 165.101562 Z M 435.664062 159.121094 " fill-opacity="1" fill-rule="nonzero"/><path fill="#d4def9" d="M 655.613281 159.121094 L 675.292969 159.121094 L 675.292969 165.101562 L 655.613281 165.101562 Z M 655.613281 159.121094 " fill-opacity="0.5" fill-rule="nonzero"/><path fill="#d4def9" d="M 587.890625 159.121094 L 648.085938 159.121094 L 648.085938 165.101562 L 587.890625 165.101562 Z M 587.890625 159.121094 " fill-opacity="0.5" fill-rule="nonzero"/><path fill="#d4def9" d="M 455.152344 65.546875 L 472.320312 65.546875 L 472.320312 71.527344 L 455.152344 71.527344 Z M 455.152344 65.546875 " fill-opacity="1" fill-rule="nonzero"/><path fill="#d4def9" d="M 479.847656 65.546875 L 576.894531 65.546875 L 576.894531 71.527344 L 479.847656 71.527344 Z M 479.847656 65.546875 " fill-opacity="0.5" fill-rule="nonzero"/><path fill="#d4def9" d="M 435.664062 65.546875 L 442.804688 65.546875 L 442.804688 71.527344 L 435.664062 71.527344 Z M 435.664062 65.546875 " fill-opacity="1" fill-rule="nonzero"/><path fill="#d4def9" d="M 587.890625 65.546875 L 732.59375 65.546875 L 732.59375 71.527344 L 587.890625 71.527344 Z M 587.890625 65.546875 " fill-opacity="0.5" fill-rule="nonzero"/><path fill="#d4def9" d="M 455.152344 177.835938 L 472.320312 177.835938 L 472.320312 183.816406 L 455.152344 183.816406 Z M 455.152344 177.835938 " fill-opacity="1" fill-rule="nonzero"/><path fill="#d4def9" d="M 594.644531 177.835938 L 611.816406 177.835938 L 611.816406 183.816406 L 594.644531 183.816406 Z M 594.644531 177.835938 " fill-opacity="1" fill-rule="nonzero"/><path fill="#d4def9" d="M 479.847656 177.835938 L 576.894531 177.835938 L 576.894531 183.816406 L 479.847656 183.816406 Z M 479.847656 177.835938 " fill-opacity="0.5" fill-rule="nonzero"/><path fill="#d4def9" d="M 435.664062 177.835938 L 442.804688 177.835938 L 442.804688 183.816406 L 435.664062 183.816406 Z M 435.664062 177.835938 " fill-opacity="1" fill-rule="nonzero"/><path fill="#d4def9" d="M 627.058594 177.835938 L 732.398438 177.835938 L 732.398438 183.816406 L 627.058594 183.816406 Z M 627.058594 177.835938 " fill-opacity="1" fill-rule="nonzero"/><path fill="#d4def9" d="M 455.152344 84.261719 L 507.628906 84.261719 L 507.628906 90.242188 L 455.152344 90.242188 Z M 455.152344 84.261719 " fill-opacity="0.3" fill-rule="nonzero"/><path fill="#d4def9" d="M 513.996094 84.261719 L 539.464844 84.261719 L 539.464844 90.242188 L 513.996094 90.242188 Z M 513.996094 84.261719 " fill-opacity="1" fill-rule="nonzero"/><path fill="#d4def9" d="M 435.664062 84.261719 L 442.804688 84.261719 L 442.804688 90.242188 L 435.664062 90.242188 Z M 435.664062 84.261719 " fill-opacity="1" fill-rule="nonzero"/><path fill="#d4def9" d="M 551.039062 84.261719 L 630.144531 84.261719 L 630.144531 90.242188 L 551.039062 90.242188 Z M 551.039062 84.261719 " fill-opacity="1" fill-rule="nonzero"/><path fill="#d4def9" d="M 638.632812 84.261719 L 732.398438 84.261719 L 732.398438 90.242188 L 638.632812 90.242188 Z M 638.632812 84.261719 " fill-opacity="0.5" fill-rule="nonzero"/><path fill="#d4def9" d="M 455.152344 102.976562 L 594.066406 102.976562 L 594.066406 108.957031 L 455.152344 108.957031 Z M 455.152344 102.976562 " fill-opacity="1" fill-rule="nonzero"/><path fill="#d4def9" d="M 435.664062 102.976562 L 442.804688 102.976562 L 442.804688 108.957031 L 435.664062 108.957031 Z M 435.664062 102.976562 " fill-opacity="1" fill-rule="nonzero"/><path fill="#d4def9" d="M 601.398438 102.976562 L 703.84375 102.976562 L 703.84375 108.957031 L 601.398438 108.957031 Z M 601.398438 102.976562 " fill-opacity="1" fill-rule="nonzero"/><path fill="#d4def9" d="M 455.152344 121.691406 L 526.539062 121.691406 L 526.539062 127.671875 L 455.152344 127.671875 Z M 455.152344 121.691406 " fill-opacity="0.5" fill-rule="nonzero"/><path fill="#d4def9" d="M 435.664062 121.691406 L 442.804688 121.691406 L 442.804688 127.671875 L 435.664062 127.671875 Z M 435.664062 121.691406 " fill-opacity="1" fill-rule="nonzero"/><path fill="#d4def9" d="M 568.019531 121.691406 L 703.84375 121.691406 L 703.84375 127.671875 L 568.019531 127.671875 Z M 568.019531 121.691406 " fill-opacity="0.5" fill-rule="nonzero"/><path fill="#d4def9" d="M 714.070312 121.691406 L 732.398438 121.691406 L 732.398438 127.671875 L 714.070312 127.671875 Z M 714.070312 121.691406 " fill-opacity="1" fill-rule="nonzero"/><path fill="#d4def9" d="M 535.992188 121.691406 L 554.320312 121.691406 L 554.320312 127.671875 L 535.992188 127.671875 Z M 535.992188 121.691406 " fill-opacity="1" fill-rule="nonzero"/><path fill="#d4def9" d="M 455.152344 140.40625 L 491.035156 140.40625 L 491.035156 146.386719 L 455.152344 146.386719 Z M 455.152344 140.40625 " fill-opacity="1" fill-rule="nonzero"/><path fill="#d4def9" d="M 527.503906 140.40625 L 563.386719 140.40625 L 563.386719 146.386719 L 527.503906 146.386719 Z M 527.503906 140.40625 " fill-opacity="1" fill-rule="nonzero"/><path fill="#d4def9" d="M 435.664062 140.40625 L 442.804688 140.40625 L 442.804688 146.386719 L 435.664062 146.386719 Z M 435.664062 140.40625 " fill-opacity="1" fill-rule="nonzero"/><path fill="#d4def9" d="M 576.699219 140.40625 L 669.503906 140.40625 L 669.503906 146.386719 L 576.699219 146.386719 Z M 576.699219 140.40625 " fill-opacity="0.3" fill-rule="nonzero"/><path fill="#d4def9" d="M 681.851562 140.40625 L 732.398438 140.40625 L 732.398438 146.386719 L 681.851562 146.386719 Z M 681.851562 140.40625 " fill-opacity="0.5" fill-rule="nonzero"/><path fill="#d4def9" d="M 500.683594 140.40625 L 519.011719 140.40625 L 519.011719 146.386719 L 500.683594 146.386719 Z M 500.683594 140.40625 " fill-opacity="0.5" fill-rule="nonzero"/><path fill="#d4def9" d="M 582.875 760.308594 L 264.144531 760.308594 C 248.710938 760.308594 236.167969 747.769531 236.167969 732.332031 L 236.167969 126.128906 C 236.167969 110.691406 248.710938 98.152344 264.144531 98.152344 L 582.875 98.152344 C 598.308594 98.152344 610.851562 110.691406 610.851562 126.128906 L 610.851562 732.332031 C 610.851562 747.769531 598.308594 760.308594 582.875 760.308594 Z M 582.875 760.308594 " fill-opacity="1" fill-rule="nonzero"/><g clip-path="url(#eb1d0637a7)"><path stroke-linecap="butt" transform="matrix(1.929361, 0, 0, 1.929362, -76.581005, -72.596064)" fill="none" stroke-linejoin="miter" d="M 341.800184 431.699457 L 176.600183 431.699457 C 168.600854 431.699457 162.099755 425.200386 162.099755 417.199037 L 162.099755 103.000339 C 162.099755 94.99899 168.600854 88.499919 176.600183 88.499919 L 341.800184 88.499919 C 349.799512 88.499919 356.300612 94.99899 356.300612 103.000339 L 356.300612 417.199037 C 356.300612 425.200386 349.799512 431.699457 341.800184 431.699457 Z M 341.800184 431.699457 " stroke="#263156" stroke-width="1.15" stroke-opacity="1" stroke-miterlimit="10"/></g><path fill="#6262ed" d="M 256.234375 131.144531 L 590.785156 131.144531 L 590.785156 704.9375 L 256.234375 704.9375 Z M 256.234375 131.144531 " fill-opacity="1" fill-rule="nonzero"/><path fill="#263156" d="M 588.664062 133.265625 L 588.664062 702.621094 L 258.550781 702.621094 L 258.550781 133.265625 L 588.664062 133.265625 M 593.101562 128.828125 L 254.113281 128.828125 L 254.113281 707.058594 L 593.101562 707.058594 Z M 593.101562 128.828125 " fill-opacity="1" fill-rule="nonzero"/><path fill="#6262ed" d="M 262.601562 136.355469 L 584.609375 136.355469 L 584.609375 699.921875 L 262.601562 699.921875 Z M 262.601562 136.355469 " fill-opacity="0.4" fill-rule="nonzero"/><path fill="#263156" d="M 431.417969 743.910156 L 415.597656 743.910156 C 413.667969 743.910156 412.125 742.367188 412.125 740.4375 L 412.125 724.617188 C 412.125 722.6875 413.667969 721.144531 415.597656 721.144531 L 431.417969 721.144531 C 433.347656 721.144531 434.894531 722.6875 434.894531 724.617188 L 434.894531 740.4375 C 434.894531 742.367188 433.347656 743.910156 431.417969 743.910156 Z M 416.179688 740.050781 L 431.035156 740.050781 L 431.035156 725.003906 L 416.179688 725.003906 Z M 416.179688 740.050781 " fill-opacity="1" fill-rule="nonzero"/><path fill="#d4def9" d="M 400.164062 587.246094 L 282.667969 587.246094 C 280.15625 587.246094 278.035156 585.125 278.035156 582.617188 L 278.035156 465.117188 C 278.035156 462.609375 280.15625 460.488281 282.667969 460.488281 L 400.164062 460.488281 C 402.671875 460.488281 404.792969 462.609375 404.792969 465.117188 L 404.792969 582.617188 C 404.792969 585.316406 402.867188 587.246094 400.164062 587.246094 Z M 400.164062 587.246094 " fill-opacity="0.2" fill-rule="nonzero"/><path fill="#263156" d="M 564.546875 587.246094 L 447.046875 587.246094 C 444.539062 587.246094 442.417969 585.125 442.417969 582.617188 L 442.417969 465.117188 C 442.417969 462.609375 444.539062 460.488281 447.046875 460.488281 L 564.546875 460.488281 C 567.054688 460.488281 569.175781 462.609375 569.175781 465.117188 L 569.175781 582.617188 C 569.175781 585.316406 567.054688 587.246094 564.546875 587.246094 Z M 564.546875 587.246094 " fill-opacity="1" fill-rule="nonzero"/><path fill="#6262ed" d="M 467.304688 560.8125 L 544.09375 560.8125 L 544.09375 565.445312 L 467.304688 565.445312 Z M 467.304688 560.8125 " fill-opacity="1" fill-rule="nonzero"/><path stroke-linecap="butt" transform="matrix(1.929361, 0, 0, 1.929362, -76.581005, -72.596064)" fill-opacity="1" fill="#d4def9" fill-rule="nonzero" stroke-linejoin="miter" d="M 269.300069 218.299121 L 389.300119 218.299121 C 391.000812 218.299121 392.399834 216.9001 392.399834 215.199409 L 392.399834 137.599287 C 392.399834 135.90062 391.000812 134.499574 389.300119 134.499574 L 269.300069 134.499574 C 267.599377 134.499574 266.200355 135.90062 266.200355 137.599287 L 266.200355 215.199409 C 266.200355 216.9001 267.599377 218.299121 269.300069 218.299121 Z M 269.300069 218.299121 " stroke="#263156" stroke-width="1.15" stroke-opacity="1" stroke-miterlimit="10"/><path fill="#263156" d="M 437.015625 211.214844 L 680.308594 211.214844 L 680.308594 192.882812 C 680.308594 189.605469 677.605469 186.902344 674.328125 186.902344 L 442.804688 186.902344 C 439.523438 186.902344 436.820312 189.605469 436.820312 192.882812 L 436.820312 211.214844 Z M 437.015625 211.214844 " fill-opacity="1" fill-rule="nonzero"/><path fill="#d4def9" d="M 492.386719 199.058594 C 492.386719 199.519531 492.300781 199.960938 492.125 200.386719 C 491.945312 200.8125 491.695312 201.1875 491.371094 201.515625 C 491.042969 201.839844 490.667969 202.089844 490.242188 202.265625 C 489.816406 202.441406 489.375 202.53125 488.914062 202.53125 C 488.453125 202.53125 488.011719 202.441406 487.585938 202.265625 C 487.160156 202.089844 486.785156 201.839844 486.460938 201.515625 C 486.132812 201.1875 485.882812 200.8125 485.707031 200.386719 C 485.53125 199.960938 485.441406 199.519531 485.441406 199.058594 C 485.441406 198.597656 485.53125 198.15625 485.707031 197.730469 C 485.882812 197.304688 486.132812 196.929688 486.460938 196.601562 C 486.785156 196.277344 487.160156 196.027344 487.585938 195.851562 C 488.011719 195.671875 488.453125 195.585938 488.914062 195.585938 C 489.375 195.585938 489.816406 195.671875 490.242188 195.851562 C 490.667969 196.027344 491.042969 196.277344 491.371094 196.601562 C 491.695312 196.929688 491.945312 197.304688 492.125 197.730469 C 492.300781 198.15625 492.386719 198.597656 492.386719 199.058594 Z M 492.386719 199.058594 " fill-opacity="1" fill-rule="nonzero"/><path fill="#d4def9" d="M 475.601562 199.058594 C 475.601562 199.519531 475.515625 199.960938 475.335938 200.386719 C 475.160156 200.8125 474.910156 201.1875 474.585938 201.515625 C 474.257812 201.839844 473.882812 202.089844 473.457031 202.265625 C 473.03125 202.441406 472.589844 202.53125 472.128906 202.53125 C 471.667969 202.53125 471.226562 202.441406 470.800781 202.265625 C 470.375 202.089844 470 201.839844 469.671875 201.515625 C 469.347656 201.1875 469.097656 200.8125 468.921875 200.386719 C 468.746094 199.960938 468.65625 199.519531 468.65625 199.058594 C 468.65625 198.597656 468.746094 198.15625 468.921875 197.730469 C 469.097656 197.304688 469.347656 196.929688 469.671875 196.601562 C 470 196.277344 470.375 196.027344 470.800781 195.851562 C 471.226562 195.671875 471.667969 195.585938 472.128906 195.585938 C 472.589844 195.585938 473.03125 195.671875 473.457031 195.851562 C 473.882812 196.027344 474.257812 196.277344 474.585938 196.601562 C 474.910156 196.929688 475.160156 197.304688 475.335938 197.730469 C 475.515625 198.15625 475.601562 198.597656 475.601562 199.058594 Z M 475.601562 199.058594 " fill-opacity="1" fill-rule="nonzero"/><path fill="#d4def9" d="M 459.007812 199.058594 C 459.007812 199.519531 458.921875 199.960938 458.746094 200.386719 C 458.570312 200.8125 458.316406 201.1875 457.992188 201.515625 C 457.667969 201.839844 457.292969 202.089844 456.867188 202.265625 C 456.441406 202.441406 455.996094 202.53125 455.535156 202.53125 C 455.078125 202.53125 454.632812 202.441406 454.207031 202.265625 C 453.78125 202.089844 453.40625 201.839844 453.082031 201.515625 C 452.753906 201.1875 452.503906 200.8125 452.328125 200.386719 C 452.152344 199.960938 452.0625 199.519531 452.0625 199.058594 C 452.0625 198.597656 452.152344 198.15625 452.328125 197.730469 C 452.503906 197.304688 452.753906 196.929688 453.082031 196.601562 C 453.40625 196.277344 453.78125 196.027344 454.207031 195.851562 C 454.632812 195.671875 455.078125 195.585938 455.535156 195.585938 C 455.996094 195.585938 456.441406 195.671875 456.867188 195.851562 C 457.292969 196.027344 457.667969 196.277344 457.992188 196.601562 C 458.316406 196.929688 458.570312 197.304688 458.746094 197.730469 C 458.921875 198.15625 459.007812 198.597656 459.007812 199.058594 Z M 459.007812 199.058594 " fill-opacity="1" fill-rule="nonzero"/><path stroke-linecap="butt" transform="matrix(1.611742, -1.06053, 1.06053, 1.611743, -166.256825, 334.752219)" fill="none" stroke-linejoin="miter" d="M 337.100291 183.200686 C 337.10028 183.94473 337.087895 184.685479 337.062024 185.424624 C 337.037843 186.164883 337.000711 186.899042 336.949514 187.628794 C 336.90112 188.357968 336.839196 189.078238 336.763742 189.789605 C 336.689979 190.502085 336.604332 191.199475 336.506268 191.88627 C 336.408204 192.573065 336.299947 193.245884 336.179229 193.900807 C 336.058511 194.555731 335.927023 195.193874 335.785299 195.810739 C 335.644153 196.430409 335.492193 197.025998 335.329997 197.600309 C 335.167801 198.174621 334.996482 198.725964 334.815461 199.251535 C 334.634441 199.777105 334.444832 200.275212 334.248326 200.746968 C 334.051819 201.218724 333.845033 201.661903 333.633576 202.075349 C 333.420427 202.487682 333.200915 202.869168 332.977845 203.219229 C 332.751971 203.569869 332.520846 203.887971 332.285585 204.171843 C 332.049211 204.457407 331.808122 204.705938 331.563474 204.923043 C 331.319939 205.138458 331.072267 205.319643 330.82157 205.464907 C 330.571987 205.608481 330.318267 205.717825 330.064327 205.79067 C 329.810387 205.863515 329.556227 205.899861 329.299043 205.900287 C 329.044664 205.900134 328.790064 205.863483 328.535245 205.790332 C 328.282117 205.718295 328.028769 205.609758 327.778006 205.464144 C 327.527242 205.31853 327.279642 205.138643 327.036317 204.922792 C 326.791301 204.705827 326.551139 204.455703 326.315831 204.172418 C 326.078832 203.88802 325.849491 203.569884 325.6222 203.219165 C 325.397713 202.867869 325.178659 202.486216 324.966729 202.07532 C 324.754221 201.66162 324.548836 201.218677 324.352267 200.747604 C 324.154006 200.275417 323.965139 199.777905 323.785087 199.252263 C 323.603344 198.725507 323.432686 198.174539 323.270309 197.599936 C 323.107932 197.025333 322.957218 196.429321 322.813672 195.811366 C 322.67293 195.192832 322.541626 194.556272 322.420873 193.899995 C 322.30181 193.24483 322.191073 192.573331 322.093156 191.886031 C 321.99693 191.199845 321.909608 190.500127 321.836262 189.790218 C 321.762338 189.077504 321.700166 188.357981 321.649166 187.628845 C 321.600971 186.89913 321.563414 186.164297 321.538187 185.425459 C 321.512382 184.683817 321.500063 183.943779 321.500074 183.199735 C 321.500085 182.455691 321.51247 181.714942 321.53665 180.974684 C 321.562522 180.235538 321.599654 179.501379 321.650852 178.771627 C 321.699245 178.042453 321.761169 177.322183 321.836624 176.610816 C 321.910387 175.898336 321.996033 175.200946 322.094098 174.514151 C 322.19047 173.826242 322.300418 173.154537 322.421136 172.499613 C 322.541854 171.844689 322.673342 171.206547 322.813375 170.588569 C 322.956212 169.970012 323.108172 169.374423 323.270368 168.800112 C 323.433677 168.224109 323.603883 167.674457 323.784904 167.148886 C 323.965924 166.623315 324.153842 166.124096 324.35204 165.653452 C 324.548546 165.181697 324.755332 164.738517 324.96679 164.325072 C 325.179938 163.912739 325.397759 163.53014 325.62252 163.181192 C 325.848395 162.830552 326.079519 162.51245 326.31478 162.228578 C 326.551154 161.943014 326.790552 161.69337 327.036892 161.477378 C 327.280427 161.261963 327.528099 161.080778 327.778795 160.935513 C 328.028378 160.79194 328.282098 160.682596 328.536038 160.609751 C 328.789978 160.536906 329.044138 160.500559 329.299631 160.499021 C 329.555702 160.500286 329.810301 160.536938 330.06512 160.610088 C 330.318248 160.682126 330.571596 160.790663 330.82236 160.936277 C 331.071432 161.080778 331.320724 161.261778 331.564048 161.477629 C 331.807373 161.693481 332.049227 161.944718 332.284534 162.228003 C 332.521534 162.512401 332.750874 162.830537 332.976474 163.180143 C 333.202074 163.529748 333.420015 163.913092 333.633636 164.325101 C 333.846145 164.738801 334.049838 165.180631 334.248099 165.652817 C 334.446359 166.125003 334.635226 166.622516 334.815278 167.148158 C 334.99533 167.6738 335.167679 168.225882 335.328365 168.799372 C 335.490742 169.373975 335.643148 169.9711 335.785002 170.587942 C 335.927435 171.207589 336.058739 171.844148 336.177801 172.499313 C 336.298555 173.15559 336.407601 173.825977 336.505518 174.513276 C 336.603435 175.200576 336.689066 175.899181 336.764103 176.610203 C 336.838027 177.322917 336.900199 178.04244 336.949508 178.770463 C 336.999394 179.501291 337.038064 180.234432 337.062178 180.974962 C 337.087405 181.713799 337.100302 182.456642 337.100291 183.200686 Z M 337.100291 183.200686 " stroke="#263156" stroke-width="1.537" stroke-opacity="1" stroke-miterlimit="10"/><path stroke-linecap="butt" transform="matrix(1.06053, -1.611743, 1.611742, 1.06053, -85.720466, 617.240677)" fill="none" stroke-linejoin="miter" d="M 352.000021 183.199011 C 351.999596 183.456195 351.963249 183.710355 351.890404 183.964295 C 351.817559 184.218235 351.708215 184.471955 351.564642 184.721538 C 351.419377 184.972234 351.238192 185.219906 351.022778 185.463442 C 350.806785 185.709781 350.557141 185.949179 350.271577 186.185553 C 349.987705 186.420814 349.669603 186.651939 349.320655 186.8767 C 348.970015 187.102574 348.587416 187.320395 348.175083 187.533544 C 347.761638 187.745001 347.318459 187.951787 346.846703 188.148294 C 346.37606 188.346491 345.87684 188.534409 345.351269 188.715429 C 344.825698 188.89645 344.276046 189.066656 343.700043 189.229965 C 343.125732 189.392161 342.530143 189.544121 341.910474 189.685267 C 341.293608 189.826991 340.655466 189.958479 340.000542 190.079197 C 339.345618 190.199915 338.6728 190.308171 337.986004 190.406236 C 337.299209 190.5043 336.601819 190.589946 335.889339 190.66371 C 335.177972 190.739164 334.457702 190.801088 333.728528 190.849481 C 332.998777 190.900679 332.264617 190.937811 331.524359 190.961992 C 330.785213 190.987863 330.044464 191.000248 329.30042 191.000259 C 328.556377 191.00027 327.815225 190.98626 327.074696 190.962146 C 326.335858 190.936919 325.601025 190.899362 324.87131 190.851167 C 324.142174 190.800167 323.422651 190.737995 322.709937 190.664071 C 321.998915 190.589034 321.300311 190.503403 320.613011 190.405486 C 319.925711 190.307569 319.255325 190.198523 318.60016 190.079461 C 317.943883 189.958707 317.307323 189.827403 316.687676 189.68497 C 316.070834 189.543115 315.473709 189.39071 314.900219 189.230024 C 314.325616 189.067647 313.774648 188.896989 313.247892 188.715246 C 312.72225 188.535194 312.224738 188.346327 311.752552 188.148066 C 311.281478 187.951497 310.838535 187.746113 310.424835 187.533604 C 310.012826 187.319983 309.631174 187.100928 309.279877 186.876442 C 308.930272 186.650842 308.612135 186.421502 308.327737 186.184502 C 308.044452 185.949195 307.794328 185.709033 307.577363 185.464016 C 307.361512 185.220691 307.181625 184.973091 307.036011 184.722328 C 306.890397 184.471564 306.78186 184.218216 306.709823 183.965088 C 306.636672 183.710269 306.600021 183.45567 306.598755 183.199599 C 306.600294 182.944106 306.63664 182.689946 306.709485 182.436006 C 306.78233 182.182066 306.891675 181.928346 307.035248 181.678763 C 307.180512 181.428067 307.361698 181.180395 307.577112 180.936859 C 307.793105 180.69052 308.042748 180.451122 308.328312 180.214748 C 308.612185 179.979487 308.930286 179.748362 309.280926 179.522488 C 309.629874 179.297727 310.012473 179.079906 310.424806 178.866757 C 310.838252 178.6553 311.281431 178.448514 311.753187 178.252007 C 312.22383 178.05381 312.72305 177.865892 313.24862 177.684872 C 313.774191 177.503851 314.325534 177.332532 314.899846 177.170336 C 315.474158 177.00814 316.069746 176.85618 316.689416 176.715034 C 317.306281 176.57331 317.944424 176.441822 318.599348 176.321104 C 319.254272 176.200386 319.925977 176.090438 320.613885 175.994065 C 321.30068 175.896001 321.99807 175.810355 322.71055 175.736591 C 323.421917 175.661137 324.142188 175.599213 324.871361 175.55082 C 325.601113 175.499622 326.335272 175.46249 327.075531 175.43831 C 327.814676 175.412438 328.555425 175.400053 329.299469 175.400042 C 330.043513 175.400031 330.785243 175.411237 331.525194 175.438155 C 332.265723 175.462269 332.998864 175.500939 333.728579 175.549134 C 334.457716 175.600134 335.177238 175.662306 335.889952 175.73623 C 336.599861 175.809575 337.299579 175.896898 337.986879 175.994815 C 338.673065 176.091041 339.346256 176.200665 339.999729 176.32084 C 340.656007 176.441594 341.292566 176.572898 341.9111 176.71364 C 342.529055 176.857186 343.125067 177.007899 343.69967 177.170277 C 344.274273 177.332654 344.825242 177.503312 345.351997 177.685055 C 345.87764 177.865107 346.375152 178.053974 346.847338 178.252235 C 347.318411 178.448804 347.761354 178.654189 348.175054 178.866697 C 348.588754 179.079206 348.969294 179.296568 349.320013 179.523859 C 349.669618 179.749459 349.987754 179.9788 350.272152 180.215799 C 350.555437 180.451107 350.805562 180.691269 351.022526 180.936285 C 351.238378 181.17961 351.418265 181.42721 351.563879 181.677974 C 351.709492 181.928737 351.818029 182.182085 351.890067 182.435213 C 351.963217 182.690032 351.999869 182.944632 352.000021 183.199011 Z M 352.000021 183.199011 " stroke="#263156" stroke-width="1.537" stroke-opacity="1" stroke-miterlimit="10"/><path stroke-linecap="butt" transform="matrix(1.929361, 0, 0, 1.929362, -76.581005, -72.596064)" fill="none" stroke-linejoin="miter" d="M 352.00029 183.200089 C 352.00029 183.455193 351.963846 183.710296 351.890959 183.9654 C 351.818072 184.218479 351.708742 184.471558 351.562969 184.722613 C 351.41922 184.971643 351.239027 185.220672 351.022391 185.463628 C 350.805756 185.708609 350.556726 185.94954 350.271252 186.184398 C 349.987803 186.42128 349.669936 186.652088 349.319674 186.876822 C 348.969413 187.101556 348.586757 187.320217 348.173731 187.532803 C 347.760706 187.745389 347.319336 187.949877 346.847596 188.148291 C 346.375857 188.346705 345.877797 188.534996 345.351392 188.715188 C 344.824987 188.895381 344.276311 189.067475 343.701315 189.229445 C 343.126319 189.391416 342.529052 189.543263 341.911539 189.684988 C 341.294026 189.826712 340.656266 189.958313 340.000285 190.079791 C 339.344303 190.199244 338.674149 190.308574 337.987798 190.405757 C 337.299423 190.504964 336.600924 190.589998 335.890278 190.66491 C 335.177607 190.737797 334.456837 190.80056 333.727969 190.849151 C 332.999101 190.899767 332.264158 190.938235 331.525167 190.962531 C 330.784151 190.986826 330.043135 191.000999 329.300094 191.000999 C 328.557054 191.000999 327.814013 190.986826 327.075022 190.962531 C 326.33603 190.938235 325.601088 190.899767 324.87222 190.849151 C 324.141327 190.80056 323.422582 190.737797 322.709911 190.66491 C 321.999265 190.589998 321.300766 190.504964 320.61239 190.405757 C 319.92604 190.308574 319.255886 190.199244 318.599904 190.079791 C 317.943923 189.958313 317.306163 189.826712 316.68865 189.684988 C 316.071137 189.543263 315.47387 189.391416 314.898874 189.229445 C 314.323878 189.067475 313.775202 188.895381 313.248797 188.715188 C 312.722392 188.534996 312.224332 188.346705 311.752593 188.148291 C 311.280853 187.949877 310.839483 187.745389 310.426457 187.532803 C 310.013432 187.320217 309.630776 187.101556 309.280515 186.876822 C 308.930253 186.652088 308.612385 186.42128 308.326912 186.184398 C 308.043463 185.94954 307.792409 185.708609 307.577798 185.463628 C 307.361162 185.220672 307.180969 184.971643 307.035196 184.722613 C 306.891447 184.471558 306.782116 184.218479 306.70923 183.9654 C 306.636343 183.710296 306.599899 183.455193 306.599899 183.200089 C 306.599899 182.944985 306.636343 182.689882 306.70923 182.434778 C 306.782116 182.181699 306.891447 181.92862 307.035196 181.677565 C 307.180969 181.428535 307.361162 181.179506 307.577798 180.93655 C 307.792409 180.691569 308.043463 180.450638 308.326912 180.21578 C 308.612385 179.978898 308.930253 179.74809 309.280515 179.523356 C 309.630776 179.298622 310.013432 179.079961 310.426457 178.867375 C 310.839483 178.654789 311.280853 178.448276 311.752593 178.251887 C 312.224332 178.053473 312.722392 177.865182 313.248797 177.68499 C 313.775202 177.504797 314.323878 177.332703 314.898874 177.170733 C 315.47387 177.008762 316.071137 176.856915 316.68865 176.71519 C 317.306163 176.573466 317.943923 176.441865 318.599904 176.320387 C 319.255886 176.200934 319.92604 176.091604 320.61239 175.994421 C 321.300766 175.895214 321.999265 175.81018 322.709911 175.735268 C 323.422582 175.662381 324.141327 175.599618 324.87222 175.549002 C 325.601088 175.500411 326.33603 175.461943 327.075022 175.437647 C 327.814013 175.413352 328.557054 175.399179 329.300094 175.399179 C 330.043135 175.399179 330.784151 175.413352 331.525167 175.437647 C 332.264158 175.461943 332.999101 175.500411 333.727969 175.549002 C 334.456837 175.599618 335.177607 175.662381 335.890278 175.735268 C 336.600924 175.81018 337.299423 175.895214 337.987798 175.994421 C 338.674149 176.091604 339.344303 176.200934 340.000285 176.320387 C 340.656266 176.441865 341.294026 176.573466 341.911539 176.71519 C 342.529052 176.856915 343.126319 177.008762 343.701315 177.170733 C 344.276311 177.332703 344.824987 177.504797 345.351392 177.68499 C 345.877797 177.865182 346.375857 178.053473 346.847596 178.251887 C 347.319336 178.448276 347.760706 178.654789 348.173731 178.867375 C 348.586757 179.077937 348.969413 179.298622 349.319674 179.523356 C 349.669936 179.74809 349.987803 179.978898 350.271252 180.21578 C 350.556726 180.450638 350.805756 180.691569 351.022391 180.93655 C 351.239027 181.179506 351.41922 181.428535 351.562969 181.677565 C 351.708742 181.92862 351.818072 182.181699 351.890959 182.434778 C 351.963846 182.689882 352.00029 182.944985 352.00029 183.200089 Z M 352.00029 183.200089 " stroke="#263156" stroke-width="1.537" stroke-opacity="1" stroke-miterlimit="10"/><path fill="#e25469" d="M 564.546875 280.863281 C 564.546875 281.320312 564.5 281.769531 564.414062 282.21875 C 564.324219 282.664062 564.191406 283.101562 564.015625 283.519531 C 563.84375 283.941406 563.628906 284.34375 563.375 284.722656 C 563.121094 285.101562 562.832031 285.453125 562.511719 285.773438 C 562.1875 286.097656 561.839844 286.386719 561.457031 286.636719 C 561.078125 286.890625 560.679688 287.105469 560.257812 287.28125 C 559.835938 287.453125 559.402344 287.585938 558.953125 287.675781 C 558.507812 287.765625 558.054688 287.808594 557.601562 287.808594 C 557.144531 287.808594 556.691406 287.765625 556.246094 287.675781 C 555.796875 287.585938 555.363281 287.453125 554.941406 287.28125 C 554.519531 287.105469 554.121094 286.890625 553.742188 286.636719 C 553.363281 286.386719 553.011719 286.097656 552.6875 285.773438 C 552.367188 285.453125 552.078125 285.101562 551.824219 284.722656 C 551.570312 284.34375 551.359375 283.941406 551.183594 283.519531 C 551.007812 283.101562 550.875 282.664062 550.789062 282.21875 C 550.699219 281.769531 550.652344 281.320312 550.65625 280.863281 C 550.652344 280.40625 550.699219 279.957031 550.789062 279.507812 C 550.875 279.0625 551.007812 278.625 551.183594 278.203125 C 551.359375 277.785156 551.570312 277.382812 551.824219 277.003906 C 552.078125 276.625 552.367188 276.273438 552.6875 275.953125 C 553.011719 275.628906 553.363281 275.339844 553.742188 275.089844 C 554.121094 274.835938 554.519531 274.621094 554.941406 274.445312 C 555.363281 274.273438 555.796875 274.140625 556.246094 274.050781 C 556.691406 273.960938 557.144531 273.917969 557.601562 273.917969 C 558.054688 273.917969 558.507812 273.960938 558.953125 274.050781 C 559.402344 274.140625 559.835938 274.273438 560.257812 274.445312 C 560.679688 274.621094 561.078125 274.835938 561.457031 275.089844 C 561.839844 275.339844 562.1875 275.628906 562.511719 275.953125 C 562.832031 276.273438 563.121094 276.625 563.375 277.003906 C 563.628906 277.382812 563.84375 277.785156 564.015625 278.203125 C 564.191406 278.625 564.324219 279.0625 564.414062 279.507812 C 564.5 279.957031 564.546875 280.40625 564.546875 280.863281 Z M 564.546875 280.863281 " fill-opacity="1" fill-rule="nonzero"/><path fill="#6262ed" d="M 125.808594 86.191406 L 176.9375 86.191406 L 176.9375 131.722656 L 125.808594 131.722656 Z M 125.808594 86.191406 " fill-opacity="1" fill-rule="nonzero"/><path fill="#d4def9" d="M 143.367188 118.21875 L 134.105469 111.65625 L 134.105469 107.800781 L 143.367188 101.238281 L 143.367188 105.484375 L 137.578125 109.535156 L 143.367188 113.78125 Z M 143.367188 118.21875 " fill-opacity="1" fill-rule="nonzero"/><path fill="#d4def9" d="M 146.261719 121.113281 L 153.785156 96.609375 L 156.484375 96.609375 L 148.960938 121.113281 Z M 146.261719 121.113281 " fill-opacity="1" fill-rule="nonzero"/><path fill="#d4def9" d="M 159.378906 118.21875 L 159.378906 113.972656 L 165.167969 109.730469 L 159.378906 105.675781 L 159.378906 101.433594 L 168.640625 107.992188 L 168.640625 111.851562 Z M 159.378906 118.21875 " fill-opacity="1" fill-rule="nonzero"/><g clip-path="url(#5cf6332d26)"><path fill="#6262ed" d="M 747.257812 255.394531 L 798.382812 255.394531 L 798.382812 300.929688 L 747.257812 300.929688 Z M 747.257812 255.394531 " fill-opacity="1" fill-rule="nonzero"/></g><path fill="#d4def9" d="M 764.621094 287.421875 L 755.359375 280.863281 L 755.359375 277.003906 L 764.621094 270.445312 L 764.621094 274.6875 L 758.832031 278.742188 L 764.621094 282.984375 Z M 764.621094 287.421875 " fill-opacity="1" fill-rule="nonzero"/><path fill="#d4def9" d="M 767.707031 290.316406 L 775.230469 265.8125 L 777.933594 265.8125 L 770.410156 290.316406 Z M 767.707031 290.316406 " fill-opacity="1" fill-rule="nonzero"/><path fill="#d4def9" d="M 780.828125 287.421875 L 780.828125 283.179688 L 786.613281 278.933594 L 780.828125 274.882812 L 780.828125 270.636719 L 790.089844 277.199219 L 790.089844 281.054688 Z M 780.828125 287.421875 " fill-opacity="1" fill-rule="nonzero"/><path fill="#edbf9d" d="M 704.039062 425.949219 C 714.265625 434.828125 689.761719 500.230469 681.464844 495.40625 C 666.222656 494.25 684.746094 414.953125 704.039062 425.949219 Z M 704.039062 425.949219 " fill-opacity="1" fill-rule="nonzero"/><path fill="#edbf9d" d="M 677.992188 462.609375 L 673.363281 487.882812 L 659.46875 492.515625 L 660.242188 505.441406 C 660.242188 505.441406 682.429688 505.441406 688.21875 497.917969 C 693.8125 490.390625 698.636719 467.816406 698.636719 467.816406 Z M 677.992188 462.609375 " fill-opacity="1" fill-rule="nonzero"/><path fill="#e25469" d="M 718.507812 417.074219 C 683.203125 415.339844 682.238281 443.507812 676.835938 462.609375 L 699.601562 469.167969 Z M 718.507812 417.074219 " fill-opacity="1" fill-rule="nonzero"/><path fill="#edbf9d" d="M 686.867188 496.179688 C 686.675781 498.109375 685.515625 499.84375 683.78125 500.808594 C 669.890625 508.140625 636.703125 505.828125 637.476562 501.003906 C 637.863281 497.917969 687.640625 481.132812 686.867188 496.179688 Z M 686.867188 496.179688 " fill-opacity="1" fill-rule="nonzero"/><path fill="#edbf9d" d="M 643.070312 498.496094 L 643.648438 497.917969 L 642.105469 496.953125 L 639.210938 495.410156 C 638.441406 495.023438 637.667969 494.828125 636.898438 494.828125 L 633.425781 495.792969 C 633.425781 495.792969 632.84375 496.757812 634.96875 496.757812 C 635.546875 496.757812 636.316406 497.144531 636.898438 497.53125 L 634.96875 497.917969 L 630.144531 499.074219 C 628.792969 499.265625 627.636719 500.617188 627.828125 502.160156 C 627.828125 502.160156 628.40625 504.285156 630.722656 504.667969 L 634.003906 505.632812 C 635.738281 505.828125 637.089844 506.210938 638.824219 505.828125 L 643.261719 504.089844 Z M 643.070312 498.496094 " fill-opacity="1" fill-rule="nonzero"/><path fill="#edbf9d" d="M 707.898438 513.351562 C 727.769531 514.121094 717.738281 532.644531 713.878906 548.851562 C 706.738281 574.511719 710.40625 607.695312 699.988281 611.363281 C 672.398438 619.464844 682.042969 521.453125 689.761719 517.210938 C 693.621094 515.28125 701.335938 514.121094 707.898438 513.351562 Z M 707.898438 513.351562 " fill-opacity="1" fill-rule="nonzero"/><path fill="#edbf9d" d="M 689.183594 602.875 C 708.667969 589.175781 706.355469 703.585938 700.953125 729.632812 C 695.550781 755.679688 690.148438 716.128906 686.867188 674.453125 C 683.203125 632.777344 681.464844 608.277344 689.183594 602.875 Z M 689.183594 602.875 " fill-opacity="1" fill-rule="nonzero"/><path fill="#edbf9d" d="M 704.039062 725.195312 L 703.652344 736.578125 L 689.375 736.769531 L 689.375 726.546875 Z M 704.039062 725.195312 " fill-opacity="1" fill-rule="nonzero"/><path fill="#263156" d="M 688.023438 736.964844 C 688.023438 736.964844 684.9375 742.753906 674.90625 750.46875 C 664.871094 758.1875 662.171875 756.449219 661.976562 759.34375 C 661.785156 762.238281 704.617188 759.730469 704.617188 759.730469 L 703.652344 736.386719 C 704.039062 736.191406 688.023438 736.191406 688.023438 736.964844 Z M 688.023438 736.964844 " fill-opacity="1" fill-rule="nonzero"/><path fill="#edbf9d" d="M 729.3125 513.929688 C 748.800781 510.070312 748.605469 531.101562 748.605469 547.886719 C 747.640625 574.511719 753.816406 605.1875 744.554688 610.976562 C 719.472656 625.253906 712.527344 524.542969 718.894531 518.5625 C 721.789062 515.859375 722.945312 516.050781 729.3125 513.929688 Z M 729.3125 513.929688 " fill-opacity="1" fill-rule="nonzero"/><path fill="#edbf9d" d="M 734.136719 602.875 C 744.167969 595.734375 752.660156 696.832031 745.90625 729.632812 C 740.503906 755.679688 735.101562 716.128906 731.820312 674.453125 C 728.15625 632.777344 726.417969 608.277344 734.136719 602.875 Z M 734.136719 602.875 " fill-opacity="1" fill-rule="nonzero"/><path fill="#edbf9d" d="M 748.222656 729.824219 L 748.222656 739.472656 L 732.980469 739.472656 L 732.980469 731.175781 Z M 748.222656 729.824219 " fill-opacity="1" fill-rule="nonzero"/><path fill="#263156" d="M 748.414062 739.28125 C 748.605469 743.136719 752.464844 755.871094 752.660156 759.152344 C 728.347656 759.730469 729.121094 764.746094 732.980469 739.28125 Z M 748.414062 739.28125 " fill-opacity="1" fill-rule="nonzero"/><path fill="#6262ed" d="M 683.585938 521.261719 C 683.585938 521.261719 676.640625 601.714844 677.027344 613.679688 C 677.414062 625.640625 688.796875 727.703125 688.796875 727.703125 L 704.425781 726.933594 C 704.425781 726.933594 710.792969 669.4375 705.773438 614.257812 L 714.84375 563.128906 L 732.207031 731.175781 L 748.800781 731.175781 C 748.800781 731.175781 749.378906 628.339844 750.535156 612.132812 C 751.5 595.929688 747.835938 518.945312 747.835938 518.945312 Z M 683.585938 521.261719 " fill-opacity="1" fill-rule="nonzero"/><path fill="#e25469" d="M 683.585938 521.261719 C 683.394531 525.121094 715.230469 525.121094 734.328125 522.804688 C 742.238281 521.839844 748.027344 520.488281 748.027344 518.945312 C 746.097656 489.8125 749.378906 468.203125 751.695312 452.382812 C 755.167969 427.6875 756.132812 417.269531 730.472656 413.988281 L 710.792969 415.917969 C 670.273438 423.25 690.53125 462.03125 683.585938 521.261719 Z M 683.585938 521.261719 " fill-opacity="1" fill-rule="nonzero"/><path fill="#6262ed" d="M 639.8125 498.25 L 701.550781 497.640625 L 701.582031 500.726562 L 639.839844 501.335938 Z M 639.8125 498.25 " fill-opacity="1" fill-rule="nonzero"/><path fill="#6262ed" d="M 623.777344 501.390625 L 681.078125 500.808594 L 664.679688 461.835938 L 607.183594 462.417969 Z M 623.777344 501.390625 " fill-opacity="1" fill-rule="nonzero"/><path fill="#263156" d="M 622.234375 501.390625 L 679.535156 500.808594 L 662.941406 461.835938 L 605.640625 462.417969 Z M 622.234375 501.390625 " fill-opacity="1" fill-rule="nonzero"/><path fill="#d4def9" d="M 644.136719 481.042969 C 644.261719 481.347656 644.367188 481.65625 644.453125 481.972656 C 644.535156 482.285156 644.597656 482.597656 644.640625 482.910156 C 644.679688 483.222656 644.695312 483.53125 644.691406 483.828125 C 644.683594 484.128906 644.65625 484.414062 644.601562 484.6875 C 644.550781 484.960938 644.476562 485.214844 644.382812 485.453125 C 644.285156 485.691406 644.167969 485.90625 644.035156 486.097656 C 643.898438 486.289062 643.746094 486.457031 643.574219 486.597656 C 643.402344 486.738281 643.21875 486.847656 643.019531 486.929688 C 642.820312 487.011719 642.609375 487.0625 642.390625 487.085938 C 642.171875 487.105469 641.945312 487.097656 641.714844 487.054688 C 641.480469 487.015625 641.246094 486.945312 641.011719 486.84375 C 640.777344 486.742188 640.542969 486.613281 640.316406 486.457031 C 640.085938 486.300781 639.863281 486.117188 639.648438 485.910156 C 639.433594 485.703125 639.230469 485.472656 639.035156 485.222656 C 638.84375 484.972656 638.667969 484.707031 638.503906 484.425781 C 638.34375 484.144531 638.199219 483.847656 638.074219 483.542969 C 637.949219 483.238281 637.84375 482.929688 637.757812 482.617188 C 637.675781 482.300781 637.613281 481.988281 637.570312 481.675781 C 637.53125 481.363281 637.515625 481.054688 637.519531 480.757812 C 637.527344 480.457031 637.554688 480.171875 637.609375 479.898438 C 637.660156 479.625 637.734375 479.371094 637.828125 479.132812 C 637.925781 478.894531 638.042969 478.679688 638.175781 478.488281 C 638.3125 478.296875 638.464844 478.128906 638.636719 477.988281 C 638.808594 477.847656 638.992188 477.738281 639.191406 477.65625 C 639.390625 477.574219 639.601562 477.523438 639.820312 477.5 C 640.039062 477.480469 640.265625 477.488281 640.496094 477.53125 C 640.730469 477.570312 640.964844 477.640625 641.199219 477.742188 C 641.433594 477.84375 641.667969 477.972656 641.894531 478.128906 C 642.125 478.285156 642.347656 478.46875 642.5625 478.675781 C 642.777344 478.882812 642.980469 479.113281 643.175781 479.363281 C 643.367188 479.613281 643.542969 479.878906 643.707031 480.160156 C 643.867188 480.445312 644.011719 480.738281 644.136719 481.042969 Z M 644.136719 481.042969 " fill-opacity="1" fill-rule="nonzero"/><path fill="#edbf9d" d="M 710.40625 410.515625 L 710.40625 413.796875 L 710.597656 421.707031 C 711.5625 431.933594 727.578125 420.742188 729.3125 416.691406 C 730.472656 413.988281 728.734375 412.636719 728.734375 406.851562 C 728.734375 401.0625 728.734375 400.484375 728.734375 400.484375 C 747.835938 370 715.808594 357.457031 703.652344 379.261719 C 703.652344 386.398438 702.882812 393.34375 702.6875 398.746094 C 702.300781 407.042969 703.460938 412.445312 710.40625 410.515625 Z M 710.40625 410.515625 " fill-opacity="1" fill-rule="nonzero"/><path fill="#263156" d="M 699.023438 372.894531 C 698.828125 376.171875 699.988281 379.261719 703.074219 380.996094 C 705.96875 382.734375 709.246094 382.347656 712.140625 381.191406 C 715.230469 380.03125 718.316406 378.101562 721.597656 379.839844 C 726.035156 382.15625 722.558594 389.101562 722.558594 392.765625 C 723.332031 393.152344 724.296875 393.539062 725.070312 393.921875 C 725.453125 391.414062 726.226562 388.90625 727.960938 388.90625 C 730.472656 389.101562 727.769531 400.484375 728.347656 400.675781 C 728.542969 400.675781 731.433594 396.625 733.171875 391.414062 C 733.558594 390.449219 733.945312 389.292969 734.136719 388.136719 C 735.871094 380.996094 735.292969 369.808594 726.804688 367.492188 C 723.140625 366.527344 719.667969 365.5625 716.195312 364.019531 C 712.914062 362.476562 709.441406 360.738281 705.773438 362.089844 C 702.109375 363.824219 699.214844 368.457031 699.023438 372.894531 Z M 699.023438 372.894531 " fill-opacity="1" fill-rule="nonzero"/><path fill="#edbf9d" d="M 747.640625 423.828125 C 758.445312 431.351562 741.46875 500.617188 733.171875 496.757812 C 718.121094 497.144531 727.960938 415.148438 747.640625 423.828125 Z M 747.640625 423.828125 " fill-opacity="1" fill-rule="nonzero"/><path fill="#edbf9d" d="M 725.839844 467.238281 L 723.332031 482.09375 L 699.40625 476.886719 L 695.742188 488.460938 C 695.742188 488.460938 728.734375 504.476562 735.679688 497.722656 C 742.625 490.96875 747.257812 469.746094 747.257812 469.746094 Z M 725.839844 467.238281 " fill-opacity="1" fill-rule="nonzero"/><path fill="#e25469" d="M 731.820312 430.582031 L 724.683594 467.625 L 748.605469 471.675781 C 748.605469 471.675781 755.167969 437.71875 754.203125 429.230469 C 754.007812 427.496094 753.238281 425.757812 752.078125 424.023438 C 752.078125 424.023438 751.886719 423.828125 751.886719 423.828125 C 746.292969 415.726562 733.945312 420.933594 731.820312 430.582031 Z M 731.820312 430.582031 " fill-opacity="1" fill-rule="nonzero"/><path stroke-linecap="butt" transform="matrix(1.929361, 0, 0, 1.929362, -76.581005, -72.596064)" fill="none" stroke-linejoin="miter" d="M 415.899759 279.799364 L 417.600452 268.400682 " stroke="#263156" stroke-width="0.288" stroke-opacity="1" stroke-miterlimit="10"/><path fill="#edbf9d" d="M 735.871094 496.371094 C 734.910156 498.109375 733.171875 499.074219 731.242188 499.265625 C 716 500.230469 663.523438 474.957031 666.800781 471.871094 C 668.152344 468.976562 742.625 483.253906 735.871094 496.371094 Z M 735.871094 496.371094 " fill-opacity="1" fill-rule="nonzero"/><path fill="#edbf9d" d="M 675.871094 472.449219 L 676.640625 472.253906 L 675.675781 470.710938 L 673.746094 468.203125 C 673.167969 467.625 672.589844 467.046875 671.816406 466.855469 L 668.34375 466.273438 C 668.34375 466.273438 667.378906 466.855469 669.308594 467.625 C 669.695312 467.820312 670.273438 468.589844 670.660156 469.167969 L 668.730469 468.589844 L 664.292969 467.625 C 663.136719 467.433594 661.785156 473.027344 663.714844 474.378906 L 664.679688 475.148438 C 666.222656 475.921875 667.1875 476.886719 668.925781 477.273438 L 673.554688 477.464844 Z M 675.871094 472.449219 " fill-opacity="1" fill-rule="nonzero"/><path fill="#263156" d="M 710.40625 410.515625 L 710.40625 410.710938 C 713.105469 409.746094 715.613281 408.585938 716.964844 407.238281 C 720.824219 403.957031 725.261719 393.730469 725.261719 393.730469 L 722.753906 392.574219 C 722.753906 392.574219 720.050781 399.90625 715.035156 399.90625 C 710.210938 399.710938 705.390625 397.011719 702.6875 398.746094 C 702.300781 407.042969 703.460938 412.445312 710.40625 410.515625 Z M 710.40625 410.515625 " fill-opacity="1" fill-rule="nonzero"/><path fill="#edbf9d" d="M 710.019531 403.761719 C 710.019531 403.570312 707.898438 402.027344 705.390625 402.21875 C 704.617188 402.21875 703.460938 403.378906 703.265625 403.957031 C 703.074219 404.148438 707.320312 406.65625 710.019531 403.761719 Z M 710.019531 403.761719 " fill-opacity="1" fill-rule="nonzero"/><path fill="#edbf9d" d="M 137 629.886719 C 118.476562 615.992188 118.285156 706.09375 122.914062 731.5625 C 127.546875 757.03125 133.140625 739.859375 137.578125 699.535156 C 142.015625 659.210938 144.332031 635.285156 137 629.886719 Z M 137 629.886719 " fill-opacity="1" fill-rule="nonzero"/><path fill="#edbf9d" d="M 120.019531 729.054688 L 119.25 738.507812 L 134.683594 739.28125 L 134.492188 730.019531 Z M 120.019531 729.054688 " fill-opacity="1" fill-rule="nonzero"/><path fill="#263156" d="M 135.070312 739.085938 C 135.070312 739.085938 137.769531 744.875 147.417969 752.59375 C 156.871094 760.308594 159.574219 758.765625 159.765625 761.46875 C 159.957031 764.167969 117.125 760.695312 117.125 760.695312 L 119.054688 738.121094 C 119.054688 737.929688 135.070312 738.507812 135.070312 739.085938 Z M 135.070312 739.085938 " fill-opacity="1" fill-rule="nonzero"/><path fill="#edbf9d" d="M 86.257812 535.539062 C 67.15625 532.257812 67.929688 552.902344 68.507812 569.109375 C 70.242188 594.964844 65.226562 624.867188 74.488281 630.269531 C 99.183594 643.390625 103.042969 545.378906 96.484375 539.589844 C 93.589844 537.082031 92.625 537.46875 86.257812 535.539062 Z M 86.257812 535.539062 " fill-opacity="1" fill-rule="nonzero"/><path fill="#edbf9d" d="M 111.144531 543.0625 C 92.046875 546.152344 99.375 565.25 104.972656 580.492188 C 114.8125 604.417969 119.636719 634.515625 130.054688 636.636719 C 157.644531 641.269531 130.246094 547.113281 122.144531 543.640625 C 118.476562 542.292969 117.707031 542.871094 111.144531 543.0625 Z M 111.144531 543.0625 " fill-opacity="1" fill-rule="nonzero"/><path fill="#edbf9d" d="M 84.519531 626.410156 C 73.136719 606.152344 36.285156 688.539062 30.113281 713.617188 C 23.9375 738.699219 36.09375 725.386719 56.542969 690.273438 C 76.996094 655.160156 88.957031 634.320312 84.519531 626.410156 Z M 84.519531 626.410156 " fill-opacity="1" fill-rule="nonzero"/><path fill="#edbf9d" d="M 27.796875 712.847656 L 23.746094 721.144531 L 37.058594 727.703125 L 40.917969 719.40625 Z M 27.796875 712.847656 " fill-opacity="1" fill-rule="nonzero"/><g clip-path="url(#79612bce70)"><path fill="#263156" d="M 38.410156 727.511719 C 38.410156 727.511719 38.601562 733.878906 44.195312 744.875 C 49.792969 755.679688 52.6875 755.484375 51.722656 757.996094 C 50.757812 760.503906 13.132812 739.859375 13.132812 739.859375 L 24.132812 719.984375 C 24.132812 719.984375 38.601562 726.933594 38.410156 727.511719 Z M 38.410156 727.511719 " fill-opacity="1" fill-rule="nonzero"/></g><path fill="#6262ed" d="M 130.246094 545.378906 C 130.246094 545.378906 147.226562 610.589844 148.574219 626.605469 C 149.925781 642.425781 137 732.140625 137 732.140625 L 116.742188 731.175781 C 116.742188 731.175781 117.320312 656.316406 120.214844 635.480469 L 101.886719 581.457031 C 101.886719 581.457031 93.203125 628.148438 90.117188 637.214844 C 86.0625 648.984375 41.882812 721.914062 41.882812 721.914062 L 25.480469 713.234375 C 25.480469 713.234375 40.53125 661.71875 65.226562 625.832031 C 65.226562 625.832031 58.667969 544.414062 70.050781 535.539062 C 81.433594 526.664062 130.246094 545.378906 130.246094 545.378906 Z M 130.246094 545.378906 " fill-opacity="1" fill-rule="nonzero"/><path fill="#edbf9d" d="M 119.054688 450.066406 C 110.566406 459.523438 141.824219 521.453125 148.769531 515.859375 C 163.046875 513.160156 135.839844 437.527344 119.054688 450.066406 Z M 119.054688 450.066406 " fill-opacity="1" fill-rule="nonzero"/><path fill="#edbf9d" d="M 146.066406 478.238281 L 153.398438 497.144531 C 153.398438 497.144531 175.007812 488.078125 179.832031 486.148438 C 184.65625 484.410156 206.261719 476.691406 206.261719 476.691406 L 210.121094 485.183594 C 210.121094 485.183594 186.96875 500.617188 179.445312 504.863281 C 172.113281 508.914062 152.820312 520.105469 144.714844 516.632812 C 136.804688 513.351562 126.195312 486.726562 126.195312 486.726562 Z M 146.066406 478.238281 " fill-opacity="1" fill-rule="nonzero"/><path fill="#edbf9d" d="M 143.367188 513.738281 C 144.714844 515.667969 147.03125 516.632812 149.347656 516.4375 C 167.289062 515.085938 224.976562 477.273438 220.734375 474.378906 C 218.804688 471.292969 133.527344 499.652344 143.367188 513.738281 Z M 143.367188 513.738281 " fill-opacity="1" fill-rule="nonzero"/><path fill="#edbf9d" d="M 228.835938 467.816406 C 228.835938 468.011719 228.835938 468.011719 229.03125 468.203125 L 228.835938 472.257812 C 229.03125 473.027344 228.257812 474.957031 227.679688 475.535156 L 225.558594 478.042969 C 223.433594 480.167969 221.121094 481.902344 218.417969 483.058594 L 211.859375 484.796875 L 210.507812 485.183594 L 209.734375 483.445312 L 207.226562 478.042969 L 206.648438 476.886719 L 206.84375 476.308594 L 208.578125 472.0625 C 209.15625 470.710938 209.929688 469.746094 210.894531 468.78125 L 216.296875 466.273438 C 216.296875 466.273438 216.488281 467.625 215.332031 469.167969 C 214.753906 469.746094 214.367188 471.097656 213.980469 472.257812 L 216.875 470.519531 L 224.207031 466.660156 C 225.941406 465.117188 228.257812 466.082031 228.835938 467.816406 Z M 228.835938 467.816406 " fill-opacity="1" fill-rule="nonzero"/><path fill="#e25469" d="M 126 487.691406 C 122.722656 480.359375 110.761719 452.191406 120.214844 447.558594 C 131.597656 441.964844 138.542969 459.328125 140.085938 462.222656 C 141.628906 465.117188 146.839844 478.429688 146.839844 478.429688 Z M 126 487.691406 " fill-opacity="1" fill-rule="nonzero"/><path fill="#e25469" d="M 68.507812 535.347656 C 67.734375 540.554688 129.859375 550.972656 130.246094 545.570312 C 130.4375 525.121094 133.527344 507.5625 135.839844 492.707031 C 136.226562 490.199219 136.613281 487.882812 136.804688 485.570312 C 140.085938 462.609375 139.316406 447.753906 117.125 440.613281 L 98.410156 436.371094 C 74.488281 436.371094 72.945312 445.4375 73.136719 466.660156 C 73.136719 473.605469 73.523438 481.902344 73.136719 491.742188 C 72.945312 504.089844 71.785156 518.367188 68.507812 535.347656 Z M 68.507812 535.347656 " fill-opacity="1" fill-rule="nonzero"/><path fill="#263156" d="M 276.300781 520.488281 L 159.957031 537.660156 C 157.449219 538.046875 155.136719 536.3125 154.75 533.800781 L 137.578125 417.460938 C 137.191406 414.953125 138.929688 412.636719 141.4375 412.253906 L 257.777344 395.082031 C 260.285156 394.695312 262.601562 396.433594 262.988281 398.941406 L 280.15625 515.28125 C 280.542969 517.789062 278.808594 520.105469 276.300781 520.488281 Z M 276.300781 520.488281 " fill-opacity="1" fill-rule="nonzero"/><path fill="#6262ed" d="M 176.257812 508.339844 L 252.226562 497.160156 L 252.902344 501.738281 L 176.929688 512.921875 Z M 176.257812 508.339844 " fill-opacity="1" fill-rule="nonzero"/><path fill="#edbf9d" d="M 100.921875 429.617188 C 100.148438 435.210938 98.21875 436.175781 98.992188 439.070312 C 100.148438 443.316406 114.425781 456.050781 116.546875 446.210938 L 116.742188 445.246094 L 118.089844 435.40625 C 128.894531 439.648438 126.386719 423.058594 128.511719 406.078125 C 119.25 383.699219 86.835938 391.800781 101.691406 423.441406 C 101.691406 423.441406 101.5 424.023438 100.921875 429.617188 Z M 100.921875 429.617188 " fill-opacity="1" fill-rule="nonzero"/><path fill="#263156" d="M 101.691406 423.441406 C 102.078125 423.441406 101.113281 412.058594 103.429688 412.253906 C 105.164062 412.445312 105.550781 415.148438 105.742188 417.847656 L 108.445312 417.269531 C 108.058594 412.253906 108.636719 406.273438 110.179688 404.921875 C 112.882812 402.414062 119.441406 406.65625 126.386719 408.394531 C 130.824219 409.359375 132.5625 404.34375 133.332031 400.675781 C 133.914062 397.976562 132.753906 395.273438 130.441406 393.730469 C 125.230469 390.449219 118.863281 392.1875 111.339844 391.609375 C 101.886719 390.835938 99.957031 396.433594 98.027344 404.535156 C 95.902344 412.636719 101.304688 423.636719 101.691406 423.441406 Z M 101.691406 423.441406 " fill-opacity="1" fill-rule="nonzero"/><path fill="#edbf9d" d="M 75.839844 448.910156 C 72.75 461.257812 128.703125 501.96875 132.5625 493.671875 C 143.945312 484.605469 85.097656 430.003906 75.839844 448.910156 Z M 75.839844 448.910156 " fill-opacity="1" fill-rule="nonzero"/><path fill="#edbf9d" d="M 113.074219 460.679688 L 130.824219 476.691406 C 130.824219 476.691406 157.066406 465.503906 163.046875 462.800781 C 169.21875 460.101562 187.546875 454.121094 187.546875 454.121094 L 191.40625 462.609375 C 191.40625 462.609375 144.714844 495.214844 130.4375 495.40625 C 119.636719 495.601562 98.992188 477.851562 98.992188 477.851562 Z M 113.074219 460.679688 " fill-opacity="1" fill-rule="nonzero"/><path fill="#edbf9d" d="M 124.84375 490.96875 C 126.195312 492.898438 128.511719 493.863281 130.824219 493.671875 C 148.769531 492.320312 206.457031 454.503906 202.210938 451.613281 C 200.089844 448.523438 114.8125 476.886719 124.84375 490.96875 Z M 124.84375 490.96875 " fill-opacity="1" fill-rule="nonzero"/><path fill="#edbf9d" d="M 210.316406 445.050781 C 210.316406 445.246094 210.316406 445.246094 210.507812 445.4375 L 210.316406 449.488281 C 210.507812 450.261719 209.734375 452.191406 209.15625 452.769531 L 207.035156 455.277344 C 204.914062 457.398438 202.597656 459.136719 199.894531 460.292969 L 193.335938 462.03125 L 191.984375 462.417969 L 191.214844 460.679688 L 188.707031 455.277344 L 188.128906 454.121094 L 188.320312 453.542969 L 190.058594 449.296875 C 190.636719 447.945312 191.40625 446.980469 192.371094 446.015625 L 197.773438 443.507812 C 197.773438 443.507812 197.96875 444.859375 196.808594 446.402344 C 196.230469 446.980469 195.84375 448.332031 195.457031 449.488281 L 198.351562 447.753906 L 205.683594 443.894531 C 207.421875 442.351562 209.542969 443.316406 210.316406 445.050781 Z M 210.316406 445.050781 " fill-opacity="1" fill-rule="nonzero"/><path fill="#e25469" d="M 98.992188 479.394531 C 92.625 474.570312 69.664062 453.925781 76.03125 445.4375 C 83.75 435.210938 97.832031 447.558594 100.339844 449.296875 C 102.847656 451.03125 113.847656 460.488281 113.847656 460.488281 Z M 98.992188 479.394531 " fill-opacity="1" fill-rule="nonzero"/><path stroke-linecap="butt" transform="matrix(1.929361, 0, 0, 1.929362, -76.581005, -72.596064)" fill="none" stroke-linejoin="miter" d="M 91.000687 286.100021 L 81.800751 277.600613 " stroke="#263156" stroke-width="0.288" stroke-opacity="1" stroke-miterlimit="10"/><path stroke-linecap="butt" transform="matrix(1.929361, 0, 0, 1.929362, -76.581005, -72.596064)" fill="none" stroke-linejoin="miter" d="M 98.599138 276.300799 L 92.699355 271.500395 " stroke="#263156" stroke-width="0.288" stroke-opacity="1" stroke-miterlimit="10"/><path fill="#d4def9" d="M 567.632812 430.96875 L 279.578125 430.96875 C 278.808594 430.96875 278.230469 430.390625 278.230469 429.617188 L 278.230469 385.046875 C 278.230469 384.277344 278.808594 383.699219 279.578125 383.699219 L 567.632812 383.699219 C 568.40625 383.699219 568.984375 384.277344 568.984375 385.046875 L 568.984375 429.617188 C 568.984375 430.390625 568.40625 430.96875 567.632812 430.96875 Z M 567.632812 430.96875 " fill-opacity="0.2" fill-rule="nonzero"/><path fill="#d4def9" d="M 572.84375 692.78125 L 274.371094 692.78125 C 273.40625 692.78125 272.632812 692.011719 272.632812 691.046875 L 272.632812 620.046875 C 272.632812 619.082031 273.40625 618.308594 274.371094 618.308594 L 572.84375 618.308594 C 573.804688 618.308594 574.578125 619.082031 574.578125 620.046875 L 574.578125 690.851562 C 574.578125 692.011719 573.808594 692.78125 572.84375 692.78125 Z M 572.84375 692.78125 " fill-opacity="0.5" fill-rule="nonzero"/><g mask="url(#f797c33647)"><g transform="matrix(1, 0, 0, 1, 295, 637)"><g clip-path="url(#fab81a5e89)"><g clip-path="url(#a82e7c1a97)"><path fill="#6262ed" d="M 1.75 0.410156 L 34.550781 0.410156 L 34.550781 33.207031 L 1.75 33.207031 Z M 1.75 0.410156 " fill-opacity="1" fill-rule="nonzero"/></g><g clip-path="url(#b8758e24eb)"><path fill="#6262ed" d="M 73.328125 0.410156 L 106.128906 0.410156 L 106.128906 33.207031 L 73.328125 33.207031 Z M 73.328125 0.410156 " fill-opacity="1" fill-rule="nonzero"/></g><g clip-path="url(#6a6280309b)"><path fill="#6262ed" d="M 144.910156 0.410156 L 177.707031 0.410156 L 177.707031 33.207031 L 144.910156 33.207031 Z M 144.910156 0.410156 " fill-opacity="1" fill-rule="nonzero"/></g><g clip-path="url(#feba8be243)"><path fill="#6262ed" d="M 216.296875 0.410156 L 249.09375 0.410156 L 249.09375 33.207031 L 216.296875 33.207031 Z M 216.296875 0.410156 " fill-opacity="1" fill-rule="nonzero"/></g></g></g></g><path fill="#6262ed" d="M 292.3125 681.976562 L 549.304688 681.976562 L 549.304688 683.714844 L 292.3125 683.714844 Z M 292.3125 681.976562 " fill-opacity="0.5" fill-rule="nonzero"/><path stroke-linecap="butt" transform="matrix(1.929361, 0, 0, 1.929362, -76.581005, -72.596064)" fill-opacity="1" fill="#6262ed" fill-rule="nonzero" stroke-linejoin="miter" d="M 105.399883 228.900098 L 249.399943 228.900098 C 251.400281 228.900098 253.100974 227.300638 253.100974 225.19907 L 253.100974 131.999153 C 253.100974 130.00084 251.499488 128.300149 249.399943 128.300149 L 105.399883 128.300149 C 103.399545 128.300149 101.700877 129.899609 101.700877 131.999153 L 101.700877 225.19907 C 101.700877 227.300638 103.300338 228.900098 105.399883 228.900098 Z M 105.399883 228.900098 " stroke="#263156" stroke-width="1.15" stroke-opacity="1" stroke-miterlimit="10"/><path fill="#263156" d="M 119.828125 203.304688 L 411.933594 203.304688 L 411.933594 181.308594 C 411.933594 177.449219 408.847656 174.167969 404.792969 174.167969 L 126.964844 174.167969 C 123.109375 174.167969 119.828125 177.257812 119.828125 181.308594 Z M 119.828125 203.304688 " fill-opacity="1" fill-rule="nonzero"/><path fill="#d4def9" d="M 186.390625 188.832031 C 186.390625 189.109375 186.363281 189.386719 186.308594 189.660156 C 186.253906 189.933594 186.175781 190.199219 186.066406 190.457031 C 185.960938 190.714844 185.832031 190.957031 185.675781 191.191406 C 185.519531 191.421875 185.34375 191.636719 185.148438 191.832031 C 184.949219 192.03125 184.734375 192.207031 184.503906 192.363281 C 184.273438 192.515625 184.027344 192.648438 183.769531 192.753906 C 183.511719 192.859375 183.246094 192.941406 182.972656 192.996094 C 182.699219 193.050781 182.425781 193.078125 182.144531 193.078125 C 181.867188 193.078125 181.589844 193.050781 181.316406 192.996094 C 181.042969 192.941406 180.78125 192.859375 180.523438 192.753906 C 180.265625 192.648438 180.019531 192.515625 179.789062 192.363281 C 179.554688 192.207031 179.34375 192.03125 179.144531 191.832031 C 178.949219 191.636719 178.773438 191.421875 178.617188 191.191406 C 178.460938 190.957031 178.332031 190.714844 178.226562 190.457031 C 178.117188 190.199219 178.039062 189.933594 177.984375 189.660156 C 177.929688 189.386719 177.902344 189.109375 177.902344 188.832031 C 177.902344 188.554688 177.929688 188.277344 177.984375 188.003906 C 178.039062 187.730469 178.117188 187.464844 178.226562 187.207031 C 178.332031 186.949219 178.460938 186.707031 178.617188 186.472656 C 178.773438 186.242188 178.949219 186.027344 179.144531 185.832031 C 179.34375 185.632812 179.554688 185.457031 179.789062 185.304688 C 180.019531 185.148438 180.265625 185.019531 180.523438 184.910156 C 180.78125 184.804688 181.042969 184.722656 181.316406 184.667969 C 181.589844 184.613281 181.867188 184.589844 182.144531 184.589844 C 182.425781 184.589844 182.699219 184.613281 182.972656 184.667969 C 183.246094 184.722656 183.511719 184.804688 183.769531 184.910156 C 184.027344 185.019531 184.273438 185.148438 184.503906 185.304688 C 184.734375 185.457031 184.949219 185.632812 185.148438 185.832031 C 185.34375 186.027344 185.519531 186.242188 185.675781 186.472656 C 185.832031 186.707031 185.960938 186.949219 186.066406 187.207031 C 186.175781 187.464844 186.253906 187.730469 186.308594 188.003906 C 186.363281 188.277344 186.390625 188.554688 186.390625 188.832031 Z M 186.390625 188.832031 " fill-opacity="1" fill-rule="nonzero"/><path fill="#d4def9" d="M 166.324219 188.832031 C 166.324219 189.109375 166.296875 189.386719 166.242188 189.660156 C 166.191406 189.933594 166.109375 190.199219 166.003906 190.457031 C 165.894531 190.714844 165.765625 190.957031 165.609375 191.191406 C 165.457031 191.421875 165.28125 191.636719 165.082031 191.832031 C 164.886719 192.03125 164.671875 192.207031 164.4375 192.363281 C 164.207031 192.515625 163.960938 192.648438 163.707031 192.753906 C 163.449219 192.859375 163.183594 192.941406 162.910156 192.996094 C 162.636719 193.050781 162.359375 193.078125 162.082031 193.078125 C 161.800781 193.078125 161.527344 193.050781 161.253906 192.996094 C 160.980469 192.941406 160.714844 192.859375 160.457031 192.753906 C 160.199219 192.648438 159.953125 192.515625 159.722656 192.363281 C 159.492188 192.207031 159.277344 192.03125 159.078125 191.832031 C 158.882812 191.636719 158.707031 191.421875 158.550781 191.191406 C 158.398438 190.957031 158.265625 190.714844 158.160156 190.457031 C 158.054688 190.199219 157.972656 189.933594 157.917969 189.660156 C 157.863281 189.386719 157.835938 189.109375 157.835938 188.832031 C 157.835938 188.554688 157.863281 188.277344 157.917969 188.003906 C 157.972656 187.730469 158.054688 187.464844 158.160156 187.207031 C 158.265625 186.949219 158.398438 186.707031 158.550781 186.472656 C 158.707031 186.242188 158.882812 186.027344 159.078125 185.832031 C 159.277344 185.632812 159.492188 185.457031 159.722656 185.304688 C 159.953125 185.148438 160.199219 185.019531 160.457031 184.910156 C 160.714844 184.804688 160.980469 184.722656 161.253906 184.667969 C 161.527344 184.613281 161.800781 184.589844 162.082031 184.589844 C 162.359375 184.589844 162.636719 184.613281 162.910156 184.667969 C 163.183594 184.722656 163.449219 184.804688 163.707031 184.910156 C 163.960938 185.019531 164.207031 185.148438 164.4375 185.304688 C 164.671875 185.457031 164.886719 185.632812 165.082031 185.832031 C 165.28125 186.027344 165.457031 186.242188 165.609375 186.472656 C 165.765625 186.707031 165.894531 186.949219 166.003906 187.207031 C 166.109375 187.464844 166.191406 187.730469 166.242188 188.003906 C 166.296875 188.277344 166.324219 188.554688 166.324219 188.832031 Z M 166.324219 188.832031 " fill-opacity="1" fill-rule="nonzero"/><path fill="#d4def9" d="M 146.261719 188.832031 C 146.261719 189.109375 146.234375 189.386719 146.179688 189.660156 C 146.125 189.933594 146.042969 190.199219 145.9375 190.457031 C 145.832031 190.714844 145.699219 190.957031 145.542969 191.191406 C 145.390625 191.421875 145.214844 191.636719 145.015625 191.832031 C 144.820312 192.03125 144.605469 192.207031 144.375 192.363281 C 144.140625 192.515625 143.898438 192.648438 143.640625 192.753906 C 143.382812 192.859375 143.117188 192.941406 142.84375 192.996094 C 142.570312 193.050781 142.292969 193.078125 142.015625 193.078125 C 141.738281 193.078125 141.460938 193.050781 141.1875 192.996094 C 140.914062 192.941406 140.648438 192.859375 140.390625 192.753906 C 140.132812 192.648438 139.890625 192.515625 139.65625 192.363281 C 139.425781 192.207031 139.210938 192.03125 139.015625 191.832031 C 138.816406 191.636719 138.640625 191.421875 138.488281 191.191406 C 138.332031 190.957031 138.199219 190.714844 138.09375 190.457031 C 137.988281 190.199219 137.90625 189.933594 137.851562 189.660156 C 137.796875 189.386719 137.769531 189.109375 137.769531 188.832031 C 137.769531 188.554688 137.796875 188.277344 137.851562 188.003906 C 137.90625 187.730469 137.988281 187.464844 138.09375 187.207031 C 138.199219 186.949219 138.332031 186.707031 138.488281 186.472656 C 138.640625 186.242188 138.816406 186.027344 139.015625 185.832031 C 139.210938 185.632812 139.425781 185.457031 139.65625 185.304688 C 139.890625 185.148438 140.132812 185.019531 140.390625 184.910156 C 140.648438 184.804688 140.914062 184.722656 141.1875 184.667969 C 141.460938 184.613281 141.738281 184.589844 142.015625 184.589844 C 142.292969 184.589844 142.570312 184.613281 142.84375 184.667969 C 143.117188 184.722656 143.382812 184.804688 143.640625 184.910156 C 143.898438 185.019531 144.140625 185.148438 144.375 185.304688 C 144.605469 185.457031 144.820312 185.632812 145.015625 185.832031 C 145.214844 186.027344 145.390625 186.242188 145.542969 186.472656 C 145.699219 186.707031 145.832031 186.949219 145.9375 187.207031 C 146.042969 187.464844 146.125 187.730469 146.179688 188.003906 C 146.234375 188.277344 146.261719 188.554688 146.261719 188.832031 Z M 146.261719 188.832031 " fill-opacity="1" fill-rule="nonzero"/><g mask="url(#56568341d3)"><g transform="matrix(1, 0, 0, 1, 141, 222)"><g clip-path="url(#ef5d2205c1)"><path fill="#d4def9" d="M 17.03125 2.332031 L 87.257812 2.332031 L 87.257812 7.347656 L 17.03125 7.347656 Z M 17.03125 2.332031 " fill-opacity="0.5" fill-rule="nonzero"/><path fill="#d4def9" d="M 95.554688 2.332031 L 117.164062 2.332031 L 117.164062 7.347656 L 95.554688 7.347656 Z M 95.554688 2.332031 " fill-opacity="0.5" fill-rule="nonzero"/><g clip-path="url(#c1ba1d996b)"><path fill="#d4def9" d="M 0.628906 2.332031 L 6.609375 2.332031 L 6.609375 7.347656 L 0.628906 7.347656 Z M 0.628906 2.332031 " fill-opacity="1" fill-rule="nonzero"/></g><path fill="#d4def9" d="M 184.304688 2.332031 L 214.015625 2.332031 L 214.015625 7.347656 L 184.304688 7.347656 Z M 184.304688 2.332031 " fill-opacity="0.8" fill-rule="nonzero"/><path fill="#d4def9" d="M 127.773438 2.332031 L 177.9375 2.332031 L 177.9375 7.347656 L 127.773438 7.347656 Z M 127.773438 2.332031 " fill-opacity="0.5" fill-rule="nonzero"/><path fill="#d4def9" d="M 99.800781 96.101562 L 17.03125 96.101562 L 17.03125 101.117188 L 117.355469 101.117188 L 117.355469 96.101562 Z M 99.800781 96.101562 " fill-opacity="1" fill-rule="nonzero"/><g clip-path="url(#584136f8ca)"><path fill="#d4def9" d="M 0.628906 96.101562 L 6.609375 96.101562 L 6.609375 101.117188 L 0.628906 101.117188 Z M 0.628906 96.101562 " fill-opacity="1" fill-rule="nonzero"/></g><path fill="#d4def9" d="M 184.304688 96.101562 L 200.703125 96.101562 L 200.703125 101.117188 L 184.304688 101.117188 Z M 184.304688 96.101562 " fill-opacity="0.5" fill-rule="nonzero"/><path fill="#d4def9" d="M 127.773438 96.101562 L 177.9375 96.101562 L 177.9375 101.117188 L 127.773438 101.117188 Z M 127.773438 96.101562 " fill-opacity="0.5" fill-rule="nonzero"/><path fill="#d4def9" d="M 17.03125 17.960938 L 31.5 17.960938 L 31.5 22.976562 L 17.03125 22.976562 Z M 17.03125 17.960938 " fill-opacity="1" fill-rule="nonzero"/><path fill="#d4def9" d="M 37.671875 17.960938 L 118.707031 17.960938 L 118.707031 22.976562 L 37.671875 22.976562 Z M 37.671875 17.960938 " fill-opacity="0.5" fill-rule="nonzero"/><g clip-path="url(#66bbd48c44)"><path fill="#d4def9" d="M 0.628906 17.960938 L 6.609375 17.960938 L 6.609375 22.976562 L 0.628906 22.976562 Z M 0.628906 17.960938 " fill-opacity="1" fill-rule="nonzero"/></g><path fill="#d4def9" d="M 127.773438 17.960938 L 248.550781 17.960938 L 248.550781 22.976562 L 127.773438 22.976562 Z M 127.773438 17.960938 " fill-opacity="0.5" fill-rule="nonzero"/><path fill="#d4def9" d="M 17.03125 111.726562 L 31.5 111.726562 L 31.5 116.742188 L 17.03125 116.742188 Z M 17.03125 111.726562 " fill-opacity="1" fill-rule="nonzero"/><path fill="#d4def9" d="M 133.371094 111.726562 L 147.839844 111.726562 L 147.839844 116.742188 L 133.371094 116.742188 Z M 133.371094 111.726562 " fill-opacity="1" fill-rule="nonzero"/><path fill="#d4def9" d="M 37.671875 111.726562 L 118.707031 111.726562 L 118.707031 116.742188 L 37.671875 116.742188 Z M 37.671875 111.726562 " fill-opacity="0.5" fill-rule="nonzero"/><g clip-path="url(#633ac87ce9)"><path fill="#d4def9" d="M 0.628906 111.726562 L 6.609375 111.726562 L 6.609375 116.742188 L 0.628906 116.742188 Z M 0.628906 111.726562 " fill-opacity="1" fill-rule="nonzero"/></g><path fill="#d4def9" d="M 160.378906 111.726562 L 248.359375 111.726562 L 248.359375 116.742188 L 160.378906 116.742188 Z M 160.378906 111.726562 " fill-opacity="1" fill-rule="nonzero"/><path fill="#d4def9" d="M 17.03125 33.589844 L 60.824219 33.589844 L 60.824219 38.605469 L 17.03125 38.605469 Z M 17.03125 33.589844 " fill-opacity="0.3" fill-rule="nonzero"/><path fill="#d4def9" d="M 66.035156 33.589844 L 87.257812 33.589844 L 87.257812 38.605469 L 66.035156 38.605469 Z M 66.035156 33.589844 " fill-opacity="1" fill-rule="nonzero"/><g clip-path="url(#0d7a8a8c30)"><path fill="#d4def9" d="M 0.628906 33.589844 L 6.609375 33.589844 L 6.609375 38.605469 L 0.628906 38.605469 Z M 0.628906 33.589844 " fill-opacity="1" fill-rule="nonzero"/></g><path fill="#d4def9" d="M 97.097656 33.589844 L 163.082031 33.589844 L 163.082031 38.605469 L 97.097656 38.605469 Z M 97.097656 33.589844 " fill-opacity="1" fill-rule="nonzero"/><path fill="#d4def9" d="M 170.21875 33.589844 L 248.359375 33.589844 L 248.359375 38.605469 L 170.21875 38.605469 Z M 170.21875 33.589844 " fill-opacity="0.5" fill-rule="nonzero"/><path fill="#d4def9" d="M 17.03125 49.214844 L 132.984375 49.214844 L 132.984375 54.234375 L 17.03125 54.234375 Z M 17.03125 49.214844 " fill-opacity="1" fill-rule="nonzero"/><g clip-path="url(#3f9b6d3b32)"><path fill="#d4def9" d="M 0.628906 49.214844 L 6.609375 49.214844 L 6.609375 54.234375 L 0.628906 54.234375 Z M 0.628906 49.214844 " fill-opacity="1" fill-rule="nonzero"/></g><path fill="#d4def9" d="M 138.964844 49.214844 L 224.628906 49.214844 L 224.628906 54.234375 L 138.964844 54.234375 Z M 138.964844 49.214844 " fill-opacity="1" fill-rule="nonzero"/><path fill="#d4def9" d="M 17.03125 64.84375 L 76.453125 64.84375 L 76.453125 69.859375 L 17.03125 69.859375 Z M 17.03125 64.84375 " fill-opacity="0.5" fill-rule="nonzero"/><g clip-path="url(#b0de06fc31)"><path fill="#d4def9" d="M 0.628906 64.84375 L 6.609375 64.84375 L 6.609375 69.859375 L 0.628906 69.859375 Z M 0.628906 64.84375 " fill-opacity="1" fill-rule="nonzero"/></g><path fill="#d4def9" d="M 111.183594 64.84375 L 224.628906 64.84375 L 224.628906 69.859375 L 111.183594 69.859375 Z M 111.183594 64.84375 " fill-opacity="0.5" fill-rule="nonzero"/><path fill="#d4def9" d="M 233.117188 64.84375 L 248.359375 64.84375 L 248.359375 69.859375 L 233.117188 69.859375 Z M 233.117188 64.84375 " fill-opacity="1" fill-rule="nonzero"/><path fill="#d4def9" d="M 84.363281 64.84375 L 99.605469 64.84375 L 99.605469 69.859375 L 84.363281 69.859375 Z M 84.363281 64.84375 " fill-opacity="1" fill-rule="nonzero"/><path fill="#d4def9" d="M 17.03125 80.472656 L 46.933594 80.472656 L 46.933594 85.488281 L 17.03125 85.488281 Z M 17.03125 80.472656 " fill-opacity="1" fill-rule="nonzero"/><path fill="#d4def9" d="M 77.417969 80.472656 L 107.324219 80.472656 L 107.324219 85.488281 L 77.417969 85.488281 Z M 77.417969 80.472656 " fill-opacity="1" fill-rule="nonzero"/><g clip-path="url(#5b05b4335d)"><path fill="#d4def9" d="M 0.628906 80.472656 L 6.609375 80.472656 L 6.609375 85.488281 L 0.628906 85.488281 Z M 0.628906 80.472656 " fill-opacity="1" fill-rule="nonzero"/></g><path fill="#d4def9" d="M 118.515625 80.472656 L 196.074219 80.472656 L 196.074219 85.488281 L 118.515625 85.488281 Z M 118.515625 80.472656 " fill-opacity="0.3" fill-rule="nonzero"/><path fill="#d4def9" d="M 206.105469 80.472656 L 248.359375 80.472656 L 248.359375 85.488281 L 206.105469 85.488281 Z M 206.105469 80.472656 " fill-opacity="0.5" fill-rule="nonzero"/><path fill="#d4def9" d="M 55.039062 80.472656 L 70.28125 80.472656 L 70.28125 85.488281 L 55.039062 85.488281 Z M 55.039062 80.472656 " fill-opacity="0.5" fill-rule="nonzero"/></g></g></g><g fill="#6262ed" fill-opacity="1"><g transform="translate(424.834854, 165.047486)"><g><path d="M 6.671875 0.3125 C 5.078125 0.3125 3.832031 -0.101562 2.9375 -0.9375 C 2.039062 -1.769531 1.59375 -2.957031 1.59375 -4.5 C 1.59375 -5.457031 1.789062 -6.265625 2.1875 -6.921875 C 2.582031 -7.578125 3.195312 -8.113281 4.03125 -8.53125 C 4.863281 -8.945312 5.945312 -9.269531 7.28125 -9.5 C 8.445312 -9.6875 9.335938 -9.898438 9.953125 -10.140625 C 10.566406 -10.390625 10.976562 -10.664062 11.1875 -10.96875 C 11.394531 -11.269531 11.5 -11.648438 11.5 -12.109375 C 11.5 -12.847656 11.242188 -13.410156 10.734375 -13.796875 C 10.234375 -14.191406 9.429688 -14.390625 8.328125 -14.390625 C 7.273438 -14.390625 6.375 -14.1875 5.625 -13.78125 C 4.882812 -13.375 4.203125 -12.769531 3.578125 -11.96875 L 3.28125 -11.96875 L 2.109375 -13.625 C 2.796875 -14.488281 3.664062 -15.175781 4.71875 -15.6875 C 5.769531 -16.207031 6.972656 -16.46875 8.328125 -16.46875 C 10.222656 -16.46875 11.625 -16.046875 12.53125 -15.203125 C 13.4375 -14.367188 13.890625 -13.21875 13.890625 -11.75 L 13.890625 -3.171875 C 13.890625 -2.273438 14.269531 -1.828125 15.03125 -1.828125 C 15.28125 -1.828125 15.523438 -1.875 15.765625 -1.96875 L 15.96875 -1.90625 L 16.25 -0.25 C 16.070312 -0.132812 15.835938 -0.046875 15.546875 0.015625 C 15.265625 0.0859375 14.96875 0.125 14.65625 0.125 C 13.769531 0.125 13.097656 -0.0703125 12.640625 -0.46875 C 12.191406 -0.863281 11.90625 -1.441406 11.78125 -2.203125 L 11.46875 -2.234375 C 11.007812 -1.378906 10.390625 -0.738281 9.609375 -0.3125 C 8.828125 0.101562 7.847656 0.3125 6.671875 0.3125 Z M 7.1875 -1.59375 C 8.09375 -1.59375 8.875 -1.800781 9.53125 -2.21875 C 10.1875 -2.632812 10.691406 -3.21875 11.046875 -3.96875 C 11.398438 -4.71875 11.578125 -5.585938 11.578125 -6.578125 L 11.578125 -8.625 L 11.296875 -8.6875 C 10.929688 -8.4375 10.488281 -8.222656 9.96875 -8.046875 C 9.457031 -7.878906 8.738281 -7.726562 7.8125 -7.59375 C 6.875 -7.457031 6.128906 -7.257812 5.578125 -7 C 5.023438 -6.738281 4.628906 -6.40625 4.390625 -6 C 4.160156 -5.59375 4.046875 -5.09375 4.046875 -4.5 C 4.046875 -3.550781 4.320312 -2.828125 4.875 -2.328125 C 5.4375 -1.835938 6.207031 -1.59375 7.1875 -1.59375 Z M 7.1875 -1.59375 "/></g></g></g></svg>