<svg xmlns="http://www.w3.org/2000/svg" xmlns:xlink="http://www.w3.org/1999/xlink" width="500" zoomAndPan="magnify" viewBox="0 0 375 60" height="80" preserveAspectRatio="xMidYMid meet" version="1.0"><defs><g/><clipPath id="20b77ab5ec"><path d="M 6 4 L 64.5 4 L 64.5 56 L 6 56 Z M 6 4 " clip-rule="nonzero"/></clipPath></defs><g fill="#00d9ff" fill-opacity="1"><g transform="translate(69.243213, 42.274401)"><g><path d="M 24.375 -23.796875 L 30.15625 -23.796875 L 22.203125 0 L 16.453125 0 L 14.921875 -4.59375 L 13.390625 0 L 7.609375 0 L -0.3125 -23.796875 L 5.46875 -23.796875 L 10.5 -8.671875 L 12.03125 -13.21875 L 8.5 -23.796875 L 12.0625 -23.796875 C 12.726562 -23.796875 13.332031 -23.601562 13.875 -23.21875 C 14.414062 -22.832031 14.789062 -22.320312 15 -21.6875 L 19.34375 -8.671875 Z M 24.375 -23.796875 "/></g></g></g><g fill="#00d9ff" fill-opacity="1"><g transform="translate(99.098012, 42.274401)"><g><path d="M 13.765625 -7.609375 L 11.28125 -5.8125 L 16.15625 -5.8125 L 16.15625 -0.03125 L 6.5 -0.03125 C 5.613281 -0.03125 4.804688 -0.242188 4.078125 -0.671875 C 3.347656 -1.109375 2.769531 -1.6875 2.34375 -2.40625 C 1.914062 -3.132812 1.703125 -3.941406 1.703125 -4.828125 L 1.703125 -12.3125 L 7.484375 -12.3125 L 7.484375 -9.25 L 11.59375 -12.3125 L 1.703125 -12.3125 L 1.703125 -13.265625 C 1.703125 -14.148438 1.914062 -14.953125 2.34375 -15.671875 C 2.769531 -16.398438 3.347656 -16.976562 4.078125 -17.40625 C 4.804688 -17.832031 5.613281 -18.046875 6.5 -18.046875 L 16.15625 -18.046875 L 16.15625 -12.3125 C 16.15625 -11.375 15.941406 -10.492188 15.515625 -9.671875 C 15.097656 -8.847656 14.515625 -8.160156 13.765625 -7.609375 Z M 13.765625 -7.609375 "/></g></g></g><g fill="#00d9ff" fill-opacity="1"><g transform="translate(116.949676, 42.274401)"><g><path d="M 16.15625 -5.78125 L 16.15625 -4.828125 C 16.15625 -3.941406 15.929688 -3.132812 15.484375 -2.40625 C 15.046875 -1.6875 14.460938 -1.109375 13.734375 -0.671875 C 13.003906 -0.242188 12.210938 -0.03125 11.359375 -0.03125 L 1.703125 -0.03125 L 1.703125 -23.828125 L 7.484375 -23.828125 L 7.484375 -18.046875 L 11.359375 -18.046875 C 12.210938 -18.046875 13.007812 -17.832031 13.75 -17.40625 C 14.488281 -16.976562 15.070312 -16.398438 15.5 -15.671875 C 15.9375 -14.953125 16.15625 -14.148438 16.15625 -13.265625 Z M 7.484375 -5.78125 L 10.375 -5.78125 L 10.375 -12.28125 L 7.484375 -12.28125 Z M 7.484375 -5.78125 "/></g></g></g><g fill="#00d9ff" fill-opacity="1"><g transform="translate(134.80134, 42.274401)"><g><path d="M 12 -23.796875 C 13.0625 -23.796875 14.03125 -23.535156 14.90625 -23.015625 C 15.78125 -22.492188 16.476562 -21.796875 17 -20.921875 C 17.519531 -20.054688 17.78125 -19.085938 17.78125 -18.015625 L 17.78125 -5.78125 C 17.78125 -4.71875 17.519531 -3.75 17 -2.875 C 16.476562 -2 15.78125 -1.300781 14.90625 -0.78125 C 14.03125 -0.257812 13.0625 0 12 0 L 1.1875 0 L 1.1875 -23.796875 Z M 6.96875 -5.78125 L 12 -5.78125 L 12 -18.015625 L 6.96875 -18.015625 Z M 6.96875 -5.78125 "/></g></g></g><g fill="#00d9ff" fill-opacity="1"><g transform="translate(153.503086, 42.274401)"><g><path d="M 13.765625 -7.609375 L 11.28125 -5.8125 L 16.15625 -5.8125 L 16.15625 -0.03125 L 6.5 -0.03125 C 5.613281 -0.03125 4.804688 -0.242188 4.078125 -0.671875 C 3.347656 -1.109375 2.769531 -1.6875 2.34375 -2.40625 C 1.914062 -3.132812 1.703125 -3.941406 1.703125 -4.828125 L 1.703125 -12.3125 L 7.484375 -12.3125 L 7.484375 -9.25 L 11.59375 -12.3125 L 1.703125 -12.3125 L 1.703125 -13.265625 C 1.703125 -14.148438 1.914062 -14.953125 2.34375 -15.671875 C 2.769531 -16.398438 3.347656 -16.976562 4.078125 -17.40625 C 4.804688 -17.832031 5.613281 -18.046875 6.5 -18.046875 L 16.15625 -18.046875 L 16.15625 -12.3125 C 16.15625 -11.375 15.941406 -10.492188 15.515625 -9.671875 C 15.097656 -8.847656 14.515625 -8.160156 13.765625 -7.609375 Z M 13.765625 -7.609375 "/></g></g></g><g fill="#00d9ff" fill-opacity="1"><g transform="translate(171.35475, 42.274401)"><g><path d="M 12.546875 -0.03125 L 6.796875 -0.03125 L 0.78125 -18.046875 C 1.9375 -18.046875 3.023438 -17.816406 4.046875 -17.359375 C 5.066406 -16.910156 5.945312 -16.273438 6.6875 -15.453125 C 7.4375 -14.628906 7.992188 -13.671875 8.359375 -12.578125 L 9.6875 -8.703125 L 12.78125 -18.046875 L 18.5625 -18.046875 Z M 12.546875 -0.03125 "/></g></g></g><g fill="#00d9ff" fill-opacity="1"><g transform="translate(190.87257, 42.274401)"><g/></g></g><g fill="#00d9ff" fill-opacity="1"><g transform="translate(201.515559, 42.274401)"><g><path d="M 21.828125 -0.03125 L 16.046875 -0.03125 L 14.21875 -5.546875 L 12.375 -0.03125 L 6.625 -0.03125 L 0.609375 -18.046875 L 6.390625 -18.046875 L 9.484375 -8.765625 L 11.28125 -14.34375 L 10.0625 -18.046875 C 11.195312 -18.046875 12.273438 -17.816406 13.296875 -17.359375 C 14.316406 -16.910156 15.207031 -16.273438 15.96875 -15.453125 C 16.726562 -14.628906 17.285156 -13.671875 17.640625 -12.578125 L 18.9375 -8.703125 L 22.0625 -18.046875 L 27.84375 -18.046875 Z M 21.828125 -0.03125 "/></g></g></g><g fill="#00d9ff" fill-opacity="1"><g transform="translate(229.976222, 42.274401)"><g><path d="M 4.765625 -18.046875 L 6.765625 -18.046875 L 6.765625 -0.03125 L 0.984375 -0.03125 L 0.984375 -14.28125 C 0.984375 -14.957031 1.148438 -15.582031 1.484375 -16.15625 C 1.828125 -16.738281 2.285156 -17.195312 2.859375 -17.53125 C 3.441406 -17.875 4.078125 -18.046875 4.765625 -18.046875 Z M 4.765625 -18.046875 "/></g></g></g><g fill="#00d9ff" fill-opacity="1"><g transform="translate(237.728952, 42.274401)"><g><path d="M 15.46875 -18.046875 L 15.46875 -12.3125 L 11.015625 -12.3125 L 11.015625 -0.03125 L 5.234375 -0.03125 L 5.234375 -12.3125 L 0.921875 -12.3125 L 0.921875 -18.046875 L 5.234375 -18.046875 L 5.234375 -23.828125 L 7.65625 -23.828125 C 8.582031 -23.828125 9.375 -23.5 10.03125 -22.84375 C 10.6875 -22.1875 11.015625 -21.394531 11.015625 -20.46875 L 11.015625 -18.046875 Z M 15.46875 -18.046875 "/></g></g></g><g fill="#00d9ff" fill-opacity="1"><g transform="translate(253.744445, 42.274401)"><g><path d="M 11.359375 -18.046875 C 12.242188 -18.046875 13.046875 -17.832031 13.765625 -17.40625 C 14.492188 -16.976562 15.070312 -16.398438 15.5 -15.671875 C 15.9375 -14.953125 16.15625 -14.148438 16.15625 -13.265625 L 16.15625 -0.03125 L 10.375 -0.03125 L 10.375 -12.28125 L 7.484375 -12.28125 L 7.484375 -0.03125 L 1.703125 -0.03125 L 1.703125 -23.828125 L 7.484375 -23.828125 L 7.484375 -18.046875 Z M 11.359375 -18.046875 "/></g></g></g><g fill="#00d9ff" fill-opacity="1"><g transform="translate(271.59611, 42.274401)"><g/></g></g><g fill="#00d9ff" fill-opacity="1"><g transform="translate(282.239099, 42.274401)"><g><path d="M 13.015625 0 L 9.390625 -8.671875 L 6.96875 -8.671875 L 6.96875 0 L 1.1875 0 L 1.1875 -23.796875 L 10.578125 -23.796875 C 11.640625 -23.796875 12.609375 -23.535156 13.484375 -23.015625 C 14.359375 -22.492188 15.046875 -21.796875 15.546875 -20.921875 C 16.054688 -20.054688 16.3125 -19.085938 16.3125 -18.015625 L 16.3125 -14.421875 C 16.3125 -13.597656 16.15625 -12.820312 15.84375 -12.09375 C 15.53125 -11.375 15.085938 -10.753906 14.515625 -10.234375 L 18.90625 0 Z M 6.96875 -18.015625 L 6.96875 -14.421875 L 10.578125 -14.421875 L 10.578125 -18.015625 Z M 6.96875 -18.015625 "/></g></g></g><g fill="#00d9ff" fill-opacity="1"><g transform="translate(301.076855, 42.274401)"><g><path d="M 13.765625 -7.609375 L 11.28125 -5.8125 L 16.15625 -5.8125 L 16.15625 -0.03125 L 6.5 -0.03125 C 5.613281 -0.03125 4.804688 -0.242188 4.078125 -0.671875 C 3.347656 -1.109375 2.769531 -1.6875 2.34375 -2.40625 C 1.914062 -3.132812 1.703125 -3.941406 1.703125 -4.828125 L 1.703125 -12.3125 L 7.484375 -12.3125 L 7.484375 -9.25 L 11.59375 -12.3125 L 1.703125 -12.3125 L 1.703125 -13.265625 C 1.703125 -14.148438 1.914062 -14.953125 2.34375 -15.671875 C 2.769531 -16.398438 3.347656 -16.976562 4.078125 -17.40625 C 4.804688 -17.832031 5.613281 -18.046875 6.5 -18.046875 L 16.15625 -18.046875 L 16.15625 -12.3125 C 16.15625 -11.375 15.941406 -10.492188 15.515625 -9.671875 C 15.097656 -8.847656 14.515625 -8.160156 13.765625 -7.609375 Z M 13.765625 -7.609375 "/></g></g></g><g fill="#00d9ff" fill-opacity="1"><g transform="translate(318.928519, 42.274401)"><g><path d="M 16.15625 -18.015625 L 16.15625 0 L 6.5 0 C 5.613281 0 4.804688 -0.210938 4.078125 -0.640625 C 3.347656 -1.078125 2.769531 -1.65625 2.34375 -2.375 C 1.914062 -3.101562 1.703125 -3.910156 1.703125 -4.796875 L 1.703125 -12.28125 L 7.484375 -12.28125 L 7.484375 -5.78125 L 10.375 -5.78125 L 10.375 -12.28125 L 1.703125 -12.28125 L 1.703125 -13.21875 C 1.703125 -14.101562 1.914062 -14.910156 2.34375 -15.640625 C 2.769531 -16.367188 3.347656 -16.945312 4.078125 -17.375 C 4.804688 -17.800781 5.613281 -18.015625 6.5 -18.015625 Z M 16.15625 -18.015625 "/></g></g></g><g fill="#00d9ff" fill-opacity="1"><g transform="translate(336.780184, 42.274401)"><g><path d="M 14.484375 -12.28125 L 7.484375 -12.28125 L 7.484375 -5.78125 L 14.484375 -5.78125 L 14.484375 -0.03125 L 7.484375 -0.03125 C 6.410156 -0.03125 5.4375 -0.289062 4.5625 -0.8125 C 3.695312 -1.332031 3.003906 -2.03125 2.484375 -2.90625 C 1.960938 -3.78125 1.703125 -4.738281 1.703125 -5.78125 L 1.703125 -12.28125 C 1.703125 -13.34375 1.960938 -14.304688 2.484375 -15.171875 C 3.003906 -16.046875 3.695312 -16.742188 4.5625 -17.265625 C 5.4375 -17.785156 6.410156 -18.046875 7.484375 -18.046875 L 14.484375 -18.046875 Z M 14.484375 -12.28125 "/></g></g></g><g fill="#00d9ff" fill-opacity="1"><g transform="translate(352.965678, 42.274401)"><g><path d="M 15.46875 -18.046875 L 15.46875 -12.3125 L 11.015625 -12.3125 L 11.015625 -0.03125 L 5.234375 -0.03125 L 5.234375 -12.3125 L 0.921875 -12.3125 L 0.921875 -18.046875 L 5.234375 -18.046875 L 5.234375 -23.828125 L 7.65625 -23.828125 C 8.582031 -23.828125 9.375 -23.5 10.03125 -22.84375 C 10.6875 -22.1875 11.015625 -21.394531 11.015625 -20.46875 L 11.015625 -18.046875 Z M 15.46875 -18.046875 "/></g></g></g><g clip-path="url(#20b77ab5ec)"><path fill="#00d8ff" d="M 54.058594 20.949219 C 53.457031 20.742188 52.828125 20.546875 52.179688 20.359375 C 52.289062 19.929688 52.386719 19.5 52.472656 19.082031 C 53.894531 12.195312 52.964844 6.644531 49.789062 4.816406 C 46.742188 3.066406 41.761719 4.894531 36.730469 9.257812 C 36.246094 9.679688 35.761719 10.125 35.277344 10.589844 C 34.953125 10.28125 34.632812 9.984375 34.308594 9.699219 C 29.039062 5.03125 23.753906 3.0625 20.578125 4.894531 C 17.535156 6.652344 16.636719 11.867188 17.917969 18.394531 C 18.039062 19.027344 18.183594 19.667969 18.347656 20.324219 C 17.601562 20.535156 16.878906 20.761719 16.1875 21.003906 C 10.003906 23.152344 6.058594 26.519531 6.058594 30.015625 C 6.058594 33.621094 10.296875 37.242188 16.734375 39.4375 C 17.242188 39.609375 17.769531 39.773438 18.3125 39.929688 C 18.136719 40.636719 17.984375 41.332031 17.855469 42.007812 C 16.632812 48.421875 17.585938 53.515625 20.621094 55.261719 C 23.757812 57.066406 29.015625 55.210938 34.140625 50.746094 C 34.546875 50.394531 34.953125 50.019531 35.355469 49.625 C 35.886719 50.132812 36.414062 50.613281 36.933594 51.0625 C 41.898438 55.320312 46.800781 57.039062 49.828125 55.289062 C 52.960938 53.480469 53.980469 48.007812 52.65625 41.355469 C 52.558594 40.84375 52.4375 40.324219 52.308594 39.796875 C 52.679688 39.6875 53.039062 39.574219 53.394531 39.457031 C 60.089844 37.246094 64.441406 33.671875 64.441406 30.015625 C 64.441406 26.507812 60.367188 23.117188 54.058594 20.949219 Z M 52.609375 37.097656 C 52.289062 37.203125 51.960938 37.304688 51.628906 37.402344 C 50.890625 35.070312 49.894531 32.589844 48.671875 30.027344 C 49.835938 27.523438 50.792969 25.074219 51.511719 22.757812 C 52.109375 22.929688 52.691406 23.109375 53.25 23.304688 C 58.652344 25.160156 61.945312 27.902344 61.945312 30.015625 C 61.945312 32.265625 58.390625 35.1875 52.609375 37.097656 Z M 50.210938 41.835938 C 50.796875 44.777344 50.878906 47.441406 50.492188 49.523438 C 50.144531 51.390625 49.445312 52.636719 48.582031 53.136719 C 46.738281 54.199219 42.804688 52.816406 38.5625 49.175781 C 38.074219 48.757812 37.585938 48.3125 37.09375 47.839844 C 38.738281 46.046875 40.382812 43.960938 41.988281 41.640625 C 44.808594 41.394531 47.476562 40.984375 49.894531 40.429688 C 50.015625 40.90625 50.121094 41.375 50.210938 41.835938 Z M 25.964844 52.953125 C 24.164062 53.585938 22.734375 53.605469 21.867188 53.105469 C 20.027344 52.046875 19.261719 47.957031 20.304688 42.472656 C 20.425781 41.84375 20.566406 41.199219 20.730469 40.539062 C 23.125 41.066406 25.769531 41.445312 28.597656 41.675781 C 30.214844 43.941406 31.90625 46.027344 33.609375 47.851562 C 33.238281 48.210938 32.867188 48.550781 32.5 48.871094 C 30.234375 50.847656 27.964844 52.25 25.964844 52.953125 Z M 17.542969 37.085938 C 14.695312 36.113281 12.34375 34.851562 10.734375 33.472656 C 9.285156 32.238281 8.554688 31.011719 8.554688 30.015625 C 8.554688 27.894531 11.722656 25.1875 17.007812 23.351562 C 17.652344 23.128906 18.320312 22.917969 19.019531 22.71875 C 19.75 25.089844 20.707031 27.570312 21.863281 30.074219 C 20.691406 32.617188 19.71875 35.136719 18.984375 37.535156 C 18.484375 37.390625 18.003906 37.242188 17.542969 37.085938 Z M 20.363281 17.917969 C 19.265625 12.324219 19.996094 8.105469 21.828125 7.046875 C 23.78125 5.917969 28.101562 7.527344 32.652344 11.558594 C 32.945312 11.816406 33.238281 12.085938 33.53125 12.363281 C 31.835938 14.183594 30.160156 16.25 28.558594 18.503906 C 25.8125 18.757812 23.183594 19.164062 20.765625 19.710938 C 20.613281 19.101562 20.480469 18.503906 20.363281 17.917969 Z M 45.546875 24.121094 C 44.96875 23.125 44.378906 22.152344 43.773438 21.207031 C 45.636719 21.441406 47.417969 21.753906 49.097656 22.136719 C 48.59375 23.746094 47.96875 25.425781 47.226562 27.152344 C 46.699219 26.148438 46.136719 25.136719 45.546875 24.121094 Z M 35.277344 14.144531 C 36.429688 15.386719 37.582031 16.773438 38.714844 18.28125 C 37.570312 18.226562 36.414062 18.199219 35.25 18.199219 C 34.097656 18.199219 32.949219 18.226562 31.8125 18.277344 C 32.945312 16.785156 34.109375 15.402344 35.277344 14.144531 Z M 24.941406 24.136719 C 24.367188 25.136719 23.816406 26.140625 23.292969 27.148438 C 22.566406 25.429688 21.945312 23.742188 21.4375 22.109375 C 23.105469 21.738281 24.882812 21.433594 26.730469 21.203125 C 26.117188 22.15625 25.519531 23.136719 24.941406 24.136719 Z M 26.785156 39 C 24.875 38.789062 23.070312 38.5 21.40625 38.140625 C 21.921875 36.480469 22.554688 34.753906 23.296875 33 C 23.820312 34.007812 24.371094 35.011719 24.953125 36.011719 C 25.542969 37.03125 26.15625 38.027344 26.785156 39 Z M 35.347656 46.058594 C 34.164062 44.789062 32.984375 43.378906 31.832031 41.867188 C 32.953125 41.910156 34.089844 41.933594 35.25 41.933594 C 36.441406 41.933594 37.617188 41.90625 38.773438 41.855469 C 37.636719 43.394531 36.488281 44.804688 35.347656 46.058594 Z M 47.25 32.910156 C 48.03125 34.683594 48.691406 36.398438 49.210938 38.03125 C 47.519531 38.417969 45.691406 38.726562 43.765625 38.957031 C 44.371094 38 44.96875 37.011719 45.558594 35.996094 C 46.152344 34.964844 46.71875 33.9375 47.25 32.910156 Z M 43.398438 34.753906 C 42.484375 36.332031 41.546875 37.835938 40.597656 39.257812 C 38.863281 39.382812 37.074219 39.445312 35.25 39.445312 C 33.433594 39.445312 31.664062 39.390625 29.964844 39.277344 C 28.972656 37.839844 28.015625 36.328125 27.109375 34.765625 C 26.207031 33.207031 25.375 31.636719 24.621094 30.074219 C 25.375 28.507812 26.203125 26.933594 27.101562 25.378906 C 28.003906 23.820312 28.953125 22.316406 29.933594 20.886719 C 31.667969 20.753906 33.449219 20.6875 35.25 20.6875 C 37.058594 20.6875 38.839844 20.753906 40.574219 20.886719 C 41.542969 22.308594 42.484375 23.804688 43.390625 25.367188 C 44.304688 26.945312 45.144531 28.507812 45.90625 30.039062 C 45.148438 31.597656 44.308594 33.175781 43.398438 34.753906 Z M 48.542969 6.972656 C 50.5 8.097656 51.257812 12.632812 50.027344 18.578125 C 49.949219 18.957031 49.863281 19.34375 49.765625 19.738281 C 47.34375 19.179688 44.714844 18.765625 41.960938 18.507812 C 40.355469 16.226562 38.695312 14.15625 37.023438 12.363281 C 37.472656 11.933594 37.921875 11.523438 38.367188 11.136719 C 42.679688 7.394531 46.707031 5.917969 48.542969 6.972656 Z M 35.25 24.8125 C 38.128906 24.8125 40.464844 27.140625 40.464844 30.015625 C 40.464844 32.882812 38.128906 35.214844 35.25 35.214844 C 32.371094 35.214844 30.035156 32.882812 30.035156 30.015625 C 30.035156 27.140625 32.371094 24.8125 35.25 24.8125 Z M 35.25 24.8125 " fill-opacity="1" fill-rule="nonzero"/></g></svg>